<svg id="eoacfs55cb3l1" xmlns="http://www.w3.org/2000/svg" xmlns:xlink="http://www.w3.org/1999/xlink" viewBox="0 0 629.040000 580" shape-rendering="geometricPrecision" text-rendering="geometricPrecision"><style><![CDATA[#eoacfs55cb3l3_to {animation: eoacfs55cb3l3_to__to 4000ms linear infinite normal forwards}@keyframes eoacfs55cb3l3_to__to { 0% {transform: translate(306.715000px,287.880000px);animation-timing-function: cubic-bezier(0.525000,0,0.515000,1)} 25% {transform: translate(305.146714px,292.219996px);animation-timing-function: cubic-bezier(0.525000,0,0.515000,1)} 50% {transform: translate(306.715000px,287.880000px);animation-timing-function: cubic-bezier(0.525000,0,0.515000,1)} 75% {transform: translate(305.146714px,292.219996px);animation-timing-function: cubic-bezier(0.525000,0,0.515000,1)} 100% {transform: translate(306.715000px,287.880000px)} }#eoacfs55cb3l4_to {animation: eoacfs55cb3l4_to__to 4000ms linear infinite normal forwards}@keyframes eoacfs55cb3l4_to__to { 0% {transform: translate(501.560000px,315.314940px)} 25% {transform: translate(512.244784px,314.058086px)} 50% {transform: translate(501.560000px,315.314940px)} 75% {transform: translate(512.244784px,314.058086px)} 100% {transform: translate(501.560000px,315.314940px)} }#eoacfs55cb3l36_to {animation: eoacfs55cb3l36_to__to 4000ms linear infinite normal forwards}@keyframes eoacfs55cb3l36_to__to { 0% {transform: translate(156.840000px,210.790000px)} 25% {transform: translate(164.112617px,210.429105px)} 50% {transform: translate(156.840000px,210.790000px)} 75% {transform: translate(164.112617px,210.429105px)} 100% {transform: translate(156.840000px,210.790000px)} }#eoacfs55cb3l39_tr {animation: eoacfs55cb3l39_tr__tr 4000ms linear infinite normal forwards}@keyframes eoacfs55cb3l39_tr__tr { 0% {transform: translate(106.780000px,437.382177px) rotate(0deg)} 25% {transform: translate(106.780000px,437.382177px) rotate(6.488340deg)} 50% {transform: translate(106.780000px,437.382177px) rotate(0deg)} 75% {transform: translate(106.780000px,437.382177px) rotate(-6.573325deg)} 100% {transform: translate(106.780000px,437.382177px) rotate(0deg)} }#eoacfs55cb3l81_to {animation: eoacfs55cb3l81_to__to 4000ms linear infinite normal forwards}@keyframes eoacfs55cb3l81_to__to { 0% {transform: translate(300.768118px,318.760294px);animation-timing-function: cubic-bezier(0.525000,0,0.515000,1)} 25% {transform: translate(300.768118px,341.360580px);animation-timing-function: cubic-bezier(0.525000,0,0.515000,1)} 50% {transform: translate(300.768118px,318.760294px);animation-timing-function: cubic-bezier(0.525000,0,0.515000,1)} 75% {transform: translate(300.768118px,341.360580px);animation-timing-function: cubic-bezier(0.525000,0,0.515000,1)} 100% {transform: translate(300.768118px,318.760294px)} }#eoacfs55cb3l82_tr {animation: eoacfs55cb3l82_tr__tr 4000ms linear infinite normal forwards}@keyframes eoacfs55cb3l82_tr__tr { 0% {transform: translate(271.490590px,183.903529px) rotate(0deg);animation-timing-function: cubic-bezier(0.525000,0,0.515000,1)} 12.500000% {transform: translate(271.490590px,183.903529px) rotate(-13.567345deg);animation-timing-function: cubic-bezier(0.525000,0,0.515000,1)} 25% {transform: translate(271.490590px,183.903529px) rotate(0deg);animation-timing-function: cubic-bezier(0.525000,0,0.515000,1)} 37.500000% {transform: translate(271.490590px,183.903529px) rotate(-13.567345deg);animation-timing-function: cubic-bezier(0.525000,0,0.515000,1)} 50% {transform: translate(271.490590px,183.903529px) rotate(0deg);animation-timing-function: cubic-bezier(0.525000,0,0.515000,1)} 62.500000% {transform: translate(271.490590px,183.903529px) rotate(-13.567345deg);animation-timing-function: cubic-bezier(0.525000,0,0.515000,1)} 75% {transform: translate(271.490590px,183.903529px) rotate(0deg);animation-timing-function: cubic-bezier(0.525000,0,0.515000,1)} 87.500000% {transform: translate(271.490590px,183.903529px) rotate(-13.567345deg);animation-timing-function: cubic-bezier(0.525000,0,0.515000,1)} 100% {transform: translate(271.490590px,183.903529px) rotate(0deg)} }#eoacfs55cb3l83_tr {animation: eoacfs55cb3l83_tr__tr 4000ms linear infinite normal forwards}@keyframes eoacfs55cb3l83_tr__tr { 0% {transform: translate(331.990590px,183.903529px) rotate(0deg);animation-timing-function: cubic-bezier(0.525000,0,0.515000,1)} 12.500000% {transform: translate(331.990590px,183.903529px) rotate(13.546003deg);animation-timing-function: cubic-bezier(0.525000,0,0.515000,1)} 25% {transform: translate(331.990590px,183.903529px) rotate(0deg);animation-timing-function: cubic-bezier(0.525000,0,0.515000,1)} 37.500000% {transform: translate(331.990590px,183.903529px) rotate(13.546003deg);animation-timing-function: cubic-bezier(0.525000,0,0.515000,1)} 50% {transform: translate(331.990590px,183.903529px) rotate(0deg);animation-timing-function: cubic-bezier(0.525000,0,0.515000,1)} 62.500000% {transform: translate(331.990590px,183.903529px) rotate(13.546003deg);animation-timing-function: cubic-bezier(0.525000,0,0.515000,1)} 75% {transform: translate(331.990590px,183.903529px) rotate(0deg);animation-timing-function: cubic-bezier(0.525000,0,0.515000,1)} 87.500000% {transform: translate(331.990590px,183.903529px) rotate(13.546003deg);animation-timing-function: cubic-bezier(0.525000,0,0.515000,1)} 100% {transform: translate(331.990590px,183.903529px) rotate(0deg)} }]]></style><rect id="eoacfs55cb3l2" width="405.650000" height="411.940000" rx="32.660000" ry="32.660000" transform="matrix(1 0 0 1 103.89000000000000 87.69000000000000)" opacity="0" fill="none" stroke="rgb(97,97,97)" stroke-width="1" stroke-miterlimit="10"/><g id="eoacfs55cb3l3_to" transform="translate(306.715000,287.880000)"><g id="eoacfs55cb3l3" transform="translate(-306.715000,-287.880000)"><g id="eoacfs55cb3l4_to" transform="translate(501.560000,315.314940)"><g id="eoacfs55cb3l4" transform="translate(-501.560000,-315.314940)"><path id="eoacfs55cb3l5" d="M529.380000,349.570000C529.418926,352.675606,526.935540,355.226111,523.830000,355.270000L478.830000,355.850000C475.722755,355.883368,473.173898,353.397114,473.130000,350.290000L472.250000,281.060000C472.228642,279.567729,472.801717,278.128244,473.842856,277.058965C474.883996,275.989687,476.307690,275.378436,477.800000,275.360000L522.800000,274.780000C525.905606,274.741074,528.456111,277.224460,528.500000,280.330000Z" fill="rgb(165,74,255)" stroke="none" stroke-width="1"/><path id="eoacfs55cb3l6" d="M474.730000,282.850000C474.730000,283.980000,474.080000,284.850000,473.250000,284.910000L472.820000,284.910000C471.990000,284.910000,471.300000,284.020000,471.290000,282.910000L471.290000,282.910000C471.290000,281.790000,471.940000,280.860000,472.770000,280.850000L473.200000,280.850000C474.030000,280.850000,474.720000,281.740000,474.730000,282.850000Z" fill="rgb(255,255,255)" stroke="none" stroke-width="1"/><path id="eoacfs55cb3l7" d="M472.860000,282.160000C472.860000,282.370000,472.810000,282.540000,472.730000,282.540000L466.390000,282.620000C466.320000,282.620000,466.250000,282.450000,466.250000,282.240000L466.250000,282.240000C466.250000,282.030000,466.310000,281.860000,466.380000,281.860000L472.720000,281.780000C472.800000,281.780000,472.860000,281.950000,472.860000,282.160000Z" fill="rgb(165,74,255)" stroke="none" stroke-width="1"/><path id="eoacfs55cb3l8" d="M472.880000,283.590000C472.880000,283.800000,472.820000,283.970000,472.750000,283.970000L466.410000,284.050000C466.330000,284.050000,466.270000,283.880000,466.270000,283.670000L466.270000,283.670000C466.270000,283.470000,466.330000,283.300000,466.400000,283.290000L472.740000,283.210000C472.810000,283.210000,472.880000,283.380000,472.880000,283.590000Z" fill="rgb(165,74,255)" stroke="none" stroke-width="1"/><path id="eoacfs55cb3l9" d="M474.820000,289.880000C474.820000,291.010000,474.170000,291.930000,473.340000,291.940000L472.910000,291.940000C472.080000,291.940000,471.390000,291.050000,471.380000,289.940000L471.380000,289.940000C471.380000,288.820000,472.030000,287.890000,472.860000,287.880000L473.290000,287.880000C474.120000,287.880000,474.810000,288.770000,474.820000,289.880000Z" fill="rgb(255,255,255)" stroke="none" stroke-width="1"/><path id="eoacfs55cb3l10" d="M473,289.190000C473,289.390000,472.950000,289.560000,472.870000,289.570000L466.530000,289.650000C466.460000,289.650000,466.390000,289.480000,466.390000,289.270000L466.390000,289.270000C466.390000,289.060000,466.450000,288.890000,466.520000,288.890000L472.860000,288.810000C472.940000,288.810000,473,288.980000,473,289.190000Z" fill="rgb(165,74,255)" stroke="none" stroke-width="1"/><path id="eoacfs55cb3l11" d="M473,290.620000C473,290.830000,472.940000,291,472.870000,291L466.530000,291.080000C466.450000,291.080000,466.390000,290.910000,466.390000,290.700000L466.390000,290.700000C466.390000,290.500000,466.450000,290.320000,466.520000,290.320000L472.860000,290.240000C472.930000,290.240000,473,290.410000,473,290.620000Z" fill="rgb(165,74,255)" stroke="none" stroke-width="1"/><path id="eoacfs55cb3l12" d="M474.910000,296.910000C474.910000,298.030000,474.260000,298.910000,473.430000,298.970000L473,298.970000C472.170000,298.970000,471.480000,298.080000,471.470000,296.970000L471.470000,296.970000C471.470000,295.850000,472.120000,294.920000,472.950000,294.910000L473.380000,294.910000C474.210000,294.910000,474.900000,295.800000,474.910000,296.910000Z" fill="rgb(255,255,255)" stroke="none" stroke-width="1"/><path id="eoacfs55cb3l13" d="M473,296.210000C473,296.420000,472.950000,296.590000,472.870000,296.600000L466.530000,296.680000C466.460000,296.680000,466.390000,296.510000,466.390000,296.300000L466.390000,296.300000C466.390000,296.090000,466.450000,295.920000,466.520000,295.920000L472.860000,295.840000C472.940000,295.840000,473,296.010000,473,296.210000Z" fill="rgb(165,74,255)" stroke="none" stroke-width="1"/><path id="eoacfs55cb3l14" d="M473.060000,297.650000C473.060000,297.860000,473,298.030000,472.930000,298.030000L466.590000,298.110000C466.520000,298.110000,466.450000,297.940000,466.450000,297.730000L466.450000,297.730000C466.450000,297.520000,466.510000,297.350000,466.580000,297.350000L472.920000,297.270000C472.990000,297.270000,473.060000,297.440000,473.060000,297.650000Z" fill="rgb(165,74,255)" stroke="none" stroke-width="1"/><path id="eoacfs55cb3l15" d="M475,303.940000C475,305.060000,474.350000,305.990000,473.520000,306L473.090000,306C472.260000,306,471.570000,305.110000,471.560000,304L471.560000,304C471.560000,302.870000,472.210000,301.950000,473.040000,301.940000L473.470000,301.940000C474.300000,301.940000,474.990000,302.830000,475,303.940000Z" fill="rgb(255,255,255)" stroke="none" stroke-width="1"/><path id="eoacfs55cb3l16" d="M473.130000,303.240000C473.130000,303.450000,473.080000,303.620000,473,303.630000L466.660000,303.710000C466.590000,303.710000,466.520000,303.540000,466.520000,303.330000L466.520000,303.330000C466.520000,303.120000,466.580000,302.950000,466.650000,302.950000L472.990000,302.870000C473.070000,302.870000,473.130000,303.040000,473.130000,303.240000Z" fill="rgb(165,74,255)" stroke="none" stroke-width="1"/><path id="eoacfs55cb3l17" d="M473.150000,304.680000C473.150000,304.890000,473.090000,305.060000,473.020000,305.060000L466.680000,305.140000C466.610000,305.140000,466.540000,304.970000,466.540000,304.760000L466.540000,304.760000C466.540000,304.550000,466.600000,304.380000,466.670000,304.380000L473.010000,304.300000C473.090000,304.300000,473.150000,304.470000,473.150000,304.680000Z" fill="rgb(165,74,255)" stroke="none" stroke-width="1"/><path id="eoacfs55cb3l18" d="M475.090000,311C475.090000,312.120000,474.440000,313,473.610000,313.060000L473.180000,313.060000C472.350000,313.060000,471.660000,312.170000,471.650000,311.060000L471.650000,311.060000C471.650000,309.930000,472.300000,309.010000,473.130000,309L473.560000,309C474.390000,309,475.080000,309.890000,475.090000,311Z" fill="rgb(255,255,255)" stroke="none" stroke-width="1"/><path id="eoacfs55cb3l19" d="M473.220000,310.270000C473.220000,310.480000,473.170000,310.650000,473.090000,310.650000L466.750000,310.740000C466.680000,310.740000,466.610000,310.570000,466.610000,310.360000L466.610000,310.360000C466.610000,310.150000,466.670000,309.980000,466.740000,309.980000L473.080000,309.900000C473.160000,309.900000,473.220000,310.060000,473.220000,310.270000Z" fill="rgb(165,74,255)" stroke="none" stroke-width="1"/><path id="eoacfs55cb3l20" d="M473.240000,311.710000C473.240000,311.920000,473.190000,312.090000,473.110000,312.090000L466.770000,312.170000C466.700000,312.170000,466.630000,312,466.630000,311.790000L466.630000,311.790000C466.630000,311.580000,466.690000,311.410000,466.760000,311.410000L473.100000,311.330000C473.180000,311.330000,473.240000,311.500000,473.240000,311.710000Z" fill="rgb(165,74,255)" stroke="none" stroke-width="1"/><path id="eoacfs55cb3l21" d="M475.180000,318C475.180000,319.120000,474.530000,320.050000,473.700000,320.060000L473.270000,320.060000C472.440000,320.060000,471.750000,319.170000,471.740000,318.060000L471.740000,318.060000C471.740000,316.930000,472.390000,316.010000,473.220000,316L473.650000,316C474.480000,316,475.170000,316.890000,475.180000,318Z" fill="rgb(255,255,255)" stroke="none" stroke-width="1"/><path id="eoacfs55cb3l22" d="M473.310000,317.300000C473.310000,317.510000,473.260000,317.680000,473.180000,317.680000L466.840000,317.770000C466.770000,317.770000,466.700000,317.600000,466.700000,317.390000L466.700000,317.390000C466.700000,317.180000,466.760000,317.010000,466.830000,317.010000L473.170000,316.930000C473.250000,316.930000,473.310000,317.090000,473.310000,317.300000Z" fill="rgb(165,74,255)" stroke="none" stroke-width="1"/><path id="eoacfs55cb3l23" d="M473.330000,318.740000C473.330000,318.950000,473.270000,319.120000,473.200000,319.120000L466.860000,319.200000C466.790000,319.200000,466.720000,319.030000,466.720000,318.820000L466.720000,318.820000C466.720000,318.610000,466.780000,318.440000,466.850000,318.440000L473.190000,318.360000C473.270000,318.360000,473.330000,318.530000,473.330000,318.740000Z" fill="rgb(165,74,255)" stroke="none" stroke-width="1"/><path id="eoacfs55cb3l24" d="M475.270000,325C475.404396,325.971334,474.753436,326.877400,473.790000,327.060000L473.360000,327.060000C472.530000,327.060000,471.850000,326.170000,471.830000,325.060000L471.830000,325.060000C471.830000,323.930000,472.480000,323.010000,473.310000,323L473.740000,323C474.570000,323,475.260000,323.900000,475.270000,325Z" fill="rgb(255,255,255)" stroke="none" stroke-width="1"/><path id="eoacfs55cb3l25" d="M473.400000,324.330000C473.400000,324.540000,473.400000,324.710000,473.270000,324.710000L466.930000,324.800000C466.860000,324.800000,466.790000,324.630000,466.790000,324.420000L466.790000,324.420000C466.790000,324.210000,466.850000,324.040000,466.920000,324.040000L473.260000,323.960000C473.340000,323.960000,473.400000,324.120000,473.400000,324.330000Z" fill="rgb(165,74,255)" stroke="none" stroke-width="1"/><path id="eoacfs55cb3l26" d="M473.420000,325.770000C473.420000,325.980000,473.370000,326.150000,473.290000,326.150000L466.950000,326.230000C466.880000,326.230000,466.810000,326.060000,466.810000,325.850000L466.810000,325.850000C466.810000,325.640000,466.870000,325.470000,466.940000,325.470000L473.280000,325.390000C473.360000,325.390000,473.420000,325.560000,473.420000,325.770000Z" fill="rgb(165,74,255)" stroke="none" stroke-width="1"/><path id="eoacfs55cb3l27" d="M475.360000,332.060000C475.360000,333.180000,474.710000,334.060000,473.880000,334.110000L473.450000,334.110000C472.620000,334.110000,471.940000,333.220000,471.920000,332.110000L471.920000,332.110000C471.920000,330.980000,472.570000,330.060000,473.400000,330.050000L473.830000,330.050000C474.660000,330.050000,475.350000,330.950000,475.360000,332.050000Z" fill="rgb(255,255,255)" stroke="none" stroke-width="1"/><path id="eoacfs55cb3l28" d="M473.490000,331.360000C473.490000,331.570000,473.440000,331.740000,473.360000,331.740000L467.020000,331.820000C466.950000,331.820000,466.880000,331.660000,466.880000,331.450000L466.880000,331.450000C466.880000,331.240000,466.940000,331.070000,467.010000,331.070000L473.350000,330.980000C473.430000,330.980000,473.490000,331.150000,473.490000,331.360000Z" fill="rgb(165,74,255)" stroke="none" stroke-width="1"/><path id="eoacfs55cb3l29" d="M473.510000,332.800000C473.510000,333.010000,473.460000,333.180000,473.380000,333.180000L467.040000,333.260000C466.970000,333.260000,466.900000,333.090000,466.900000,332.880000L466.900000,332.880000C466.900000,332.670000,466.960000,332.500000,467.030000,332.500000L473.370000,332.420000C473.450000,332.420000,473.510000,332.590000,473.510000,332.800000Z" fill="rgb(165,74,255)" stroke="none" stroke-width="1"/><path id="eoacfs55cb3l30" d="M475.450000,339.080000C475.450000,340.210000,474.800000,341.130000,473.970000,341.140000L473.540000,341.140000C472.710000,341.140000,472.030000,340.250000,472.010000,339.140000L472.010000,339.140000C472.010000,338.010000,472.660000,337.090000,473.490000,337.080000L473.920000,337.080000C474.750000,337.080000,475.440000,337.980000,475.450000,339.080000Z" fill="rgb(255,255,255)" stroke="none" stroke-width="1"/><path id="eoacfs55cb3l31" d="M473.580000,338.390000C473.580000,338.600000,473.530000,338.770000,473.450000,338.770000L467.110000,338.850000C467.040000,338.850000,466.970000,338.690000,466.970000,338.480000L466.970000,338.480000C466.970000,338.270000,467.030000,338.100000,467.100000,338.100000L473.440000,338.010000C473.520000,338.010000,473.580000,338.180000,473.580000,338.390000Z" fill="rgb(165,74,255)" stroke="none" stroke-width="1"/><path id="eoacfs55cb3l32" d="M473.600000,339.830000C473.600000,340.030000,473.550000,340.200000,473.470000,340.210000L467.130000,340.290000C467.060000,340.290000,466.990000,340.120000,466.990000,339.910000L466.990000,339.910000C466.990000,339.700000,467.050000,339.530000,467.120000,339.530000L473.460000,339.450000C473.540000,339.450000,473.600000,339.620000,473.600000,339.830000Z" fill="rgb(165,74,255)" stroke="none" stroke-width="1"/><path id="eoacfs55cb3l33" d="M475.540000,346.110000C475.540000,347.240000,474.890000,348.160000,474.060000,348.170000L473.630000,348.170000C472.800000,348.170000,472.120000,347.280000,472.100000,346.170000L472.100000,346.170000C472.100000,345.040000,472.750000,344.120000,473.580000,344.110000L474,344.110000C474.830000,344.110000,475.520000,345.010000,475.530000,346.110000Z" fill="rgb(255,255,255)" stroke="none" stroke-width="1"/><path id="eoacfs55cb3l34" d="M473.680000,345.420000C473.680000,345.630000,473.620000,345.800000,473.540000,345.800000L467.200000,345.880000C467.130000,345.880000,467.060000,345.720000,467.060000,345.510000L467.060000,345.510000C467.060000,345.300000,467.120000,345.130000,467.190000,345.130000L473.530000,345.040000C473.610000,345.040000,473.670000,345.210000,473.680000,345.420000Z" fill="rgb(165,74,255)" stroke="none" stroke-width="1"/><path id="eoacfs55cb3l35" d="M473.690000,346.850000C473.690000,347.060000,473.640000,347.230000,473.560000,347.240000L467.220000,347.320000C467.150000,347.320000,467.080000,347.150000,467.080000,346.940000L467.080000,346.940000C467.080000,346.730000,467.140000,346.560000,467.210000,346.560000L473.550000,346.480000C473.630000,346.480000,473.690000,346.650000,473.690000,346.850000Z" fill="rgb(165,74,255)" stroke="none" stroke-width="1"/></g></g><g id="eoacfs55cb3l36_to" transform="translate(156.840000,210.790000)"><g id="eoacfs55cb3l36" transform="translate(-156.840000,-210.790000)"><path id="eoacfs55cb3l37" d="M197.060000,204.220000L185.060000,204.220000C184.860721,204.221326,184.662436,204.248212,184.470000,204.300000C181.122193,190.034488,167.467554,180.660458,152.951897,182.662546C138.436240,184.664634,127.828996,197.385011,128.467896,212.024153C129.106796,226.663294,140.781915,238.411196,155.416803,239.141059C170.051692,239.870922,182.837742,229.342935,184.930000,214.840000L197.050000,214.840000C197.676726,214.842673,198.278556,214.594889,198.721722,214.151722C199.164889,213.708556,199.412673,213.106726,199.410000,212.480000L199.410000,206.570000C199.404522,205.274407,198.355593,204.225478,197.060000,204.220000Z" fill="rgb(165,74,255)" stroke="none" stroke-width="1"/><circle id="eoacfs55cb3l38" r="17.760000" transform="matrix(1 0 0 1 156.84000000000000 210.78999999999999)" fill="rgb(255,242,208)" stroke="none" stroke-width="1"/></g></g><g id="eoacfs55cb3l39_tr" transform="translate(106.780000,437.382177) rotate(0)"><g id="eoacfs55cb3l39" transform="translate(-106.780000,-437.382177)"><rect id="eoacfs55cb3l40" width="38.890000" height="80.680000" rx="6" ry="6" transform="matrix(0.99993000000000 -0.01186800000000 0.01186800000000 0.99993000000000 86.87607629999999 397.27577406000000)" fill="rgb(255,214,64)" stroke="none" stroke-width="1"/><rect id="eoacfs55cb3l41" width="30.620000" height="69.950000" rx="6" ry="6" transform="matrix(0.99993000000000 -0.01186800000000 0.01186800000000 0.99993000000000 91.07951766000001 402.59626464000002)" fill="rgb(255,242,208)" stroke="none" stroke-width="1"/><path id="eoacfs55cb3l42" d="M113,415.170000C112.187595,413.452658,110.699388,412.149119,108.890000,411.570000L108.890000,411.570000C107.979319,411.283318,107.018534,411.191328,106.070000,411.300000L106,411.300000L105.500000,411.380000L105.200000,411.450000L104.920000,411.520000L104.470000,411.670000L104.350000,411.670000L104.130000,411.750000L104.130000,411.750000C101.591957,412.841410,99.957998,415.350671,99.986411,418.113285C100.014824,420.875898,101.700046,423.351022,104.260000,424.390000L106.780000,417.390000L109.960000,424.140000C113.210119,422.444988,114.549893,418.491772,113,415.170000Z" fill="rgb(165,74,255)" stroke="none" stroke-width="1"/><circle id="eoacfs55cb3l43" r="1.650000" transform="matrix(1 0 0 1 106.78000000000000 431.75999999999999)" fill="rgb(165,74,255)" stroke="none" stroke-width="1"/><circle id="eoacfs55cb3l44" r="1.650000" transform="matrix(1 0 0 1 106.78000000000000 437.79000000000002)" fill="rgb(165,74,255)" stroke="none" stroke-width="1"/><circle id="eoacfs55cb3l45" r="1.650000" transform="matrix(1 0 0 1 106.78000000000000 443.81999999999999)" fill="rgb(165,74,255)" fill-opacity="0.6" stroke="none" stroke-width="1"/><circle id="eoacfs55cb3l46" r="1.650000" transform="matrix(1 0 0 1 106.78000000000000 449.85000000000002)" fill="rgb(165,74,255)" fill-opacity="0.5" stroke="none" stroke-width="1"/><circle id="eoacfs55cb3l47" r="1.650000" transform="matrix(1 0 0 1 106.78000000000000 455.88000000000000)" fill="rgb(165,74,255)" fill-opacity="0.4" stroke="none" stroke-width="1"/><circle id="eoacfs55cb3l48" r="1.650000" transform="matrix(1 0 0 1 106.78000000000000 461.91000000000003)" fill="rgb(165,74,255)" fill-opacity="0.3" stroke="none" stroke-width="1"/></g></g><g id="eoacfs55cb3l49" transform="matrix(1 0 0 1 1.07312280000002 -16.09000000000005)"><rect id="eoacfs55cb3l50" width="32.450000" height="32.450000" rx="4" ry="4" transform="matrix(1 0 0 1 114.42000000000000 111.75000000000000)" fill="rgb(255,214,64)" stroke="none" stroke-width="1"/><rect id="eoacfs55cb3l51" width="32.450000" height="32.450000" rx="4" ry="4" transform="matrix(1 0 0 1 102.19000000000000 115.53000000000000)" fill="rgb(255,242,208)" stroke="none" stroke-width="1"/><rect id="eoacfs55cb3l52" width="32.450000" height="32.450000" rx="4" ry="4" transform="matrix(1 0 0 1 91.14000000000000 119.86000000000000)" fill="rgb(165,74,255)" stroke="none" stroke-width="1"/></g><g id="eoacfs55cb3l53"><path id="eoacfs55cb3l54" d="M109.840000,309.740000C95.840000,310.970000,86.130000,319.810000,77.080000,329.740000C74.910000,332.130000,78.330000,335.840000,80.520000,333.430000C88.520000,324.680000,97.250000,314.340000,109.690000,313.250000C112.890000,313,113.080000,309.460000,109.840000,309.740000Z" fill="rgb(255,214,64)" stroke="none" stroke-width="1"/><path id="eoacfs55cb3l55" d="M137,310.230000C150.940000,311.960000,160.330000,321.160000,169,331.420000C171.090000,333.890000,167.540000,337.470000,165.430000,334.990000C157.790000,325.990000,149.430000,314.800000,137.020000,313.260000C133.810000,312.860000,133.750000,309.830000,137,310.230000Z" fill="rgb(255,214,64)" stroke="none" stroke-width="1"/><path id="eoacfs55cb3l56" d="M169.510000,312.200000C169.389053,313.326557,168.388690,314.149077,167.260000,314.050000L79.430000,312.460000C78.297224,312.522769,77.324993,311.662032,77.250000,310.530000L77.250000,310.530000C77.365820,309.400685,78.369595,308.575360,79.500000,308.680000L167.330000,310.270000C168.462776,310.207231,169.435007,311.067968,169.510000,312.200000Z" fill="rgb(255,214,64)" stroke="none" stroke-width="1"/><path id="eoacfs55cb3l57" d="M98.430000,331.460000C87.784563,331.264993,79.312477,322.477691,79.506314,311.832233C79.700152,301.186775,88.486523,292.713723,99.132002,292.906391C109.777482,293.099059,118.251499,301.884499,118.060000,312.530000C117.857496,323.174038,109.074374,331.643956,98.430000,331.460000ZM99.070000,295.920000C90.095487,295.777926,82.703299,302.934622,82.554847,311.909032C82.406395,320.883442,89.557836,328.280714,98.532139,328.435544C107.506441,328.590373,114.908793,321.444190,115.070000,312.470000C115.220390,303.482153,108.057797,296.073346,99.070000,295.920000Z" fill="rgb(165,74,255)" stroke="none" stroke-width="1"/><path id="eoacfs55cb3l58" d="M147.590000,332.350000C136.944563,332.154993,128.472477,323.367691,128.666314,312.722233C128.860152,302.076775,137.646523,293.603723,148.292002,293.796391C158.937482,293.989059,167.411499,302.774499,167.220000,313.420000C167.012039,324.061657,158.232193,332.528416,147.590000,332.350000ZM148.230000,296.810000C139.255487,296.667926,131.863299,303.824622,131.714847,312.799032C131.566395,321.773442,138.717836,329.170714,147.692139,329.325544C156.666441,329.480373,164.068793,322.334190,164.230000,313.360000C164.380390,304.372153,157.217797,296.963346,148.230000,296.810000Z" fill="rgb(165,74,255)" stroke="none" stroke-width="1"/><path id="eoacfs55cb3l59" d="M115,313.730000C114.706053,313.728806,114.422252,313.622381,114.200000,313.430000C113.947688,313.210091,113.793238,312.898832,113.770726,312.564895C113.748213,312.230958,113.859488,311.901784,114.080000,311.650000C114.230000,311.470000,117.960000,307.230000,123.280000,307.180000C126.600000,307.180000,129.740000,308.750000,132.600000,311.930000C133.066681,312.446386,133.026386,313.243319,132.510000,313.710000C131.993614,314.176681,131.196681,314.136386,130.730000,313.620000C128.370000,311,125.870000,309.680000,123.300000,309.700000C119.110000,309.700000,116.010000,313.260000,115.980000,313.300000C115.735182,313.584177,115.374889,313.742265,115,313.730000Z" fill="rgb(165,74,255)" stroke="none" stroke-width="1"/></g><g id="eoacfs55cb3l60"><rect id="eoacfs55cb3l61" width="102.580000" height="88.910000" rx="14" ry="14" transform="matrix(1 0 0 1 435.91000000000003 392.94000000000000)" fill="rgb(165,74,255)" stroke="none" stroke-width="1"/><rect id="eoacfs55cb3l62" width="102.580000" height="54.800000" rx="0" ry="0" transform="matrix(1 0 0 1 435.91000000000003 414.45999999999998)" fill="rgb(255,242,208)" stroke="none" stroke-width="1"/><rect id="eoacfs55cb3l63" width="9.840000" height="13.800000" rx="4.290000" ry="4.290000" transform="matrix(0.86602500000000 -0.50000000000000 0.50000000000000 0.86602500000000 442.55923374999998 400.81931574999999)" fill="rgb(255,242,208)" stroke="none" stroke-width="1"/><rect id="eoacfs55cb3l64" width="9.840000" height="13.800000" rx="4.290000" ry="4.290000" transform="matrix(-0.86602500000000 -0.50000000000000 0.50000000000000 -0.86602500000000 526.90875075000008 412.76068424999994)" fill="rgb(255,242,208)" stroke="none" stroke-width="1"/><path id="eoacfs55cb3l65" d="M548.490000,419.740000L546.130000,425.040000L546.130000,463C546.130000,465.300000,547.190000,467.170000,548.490000,467.170000C549.790000,467.170000,550.840000,465.300000,550.840000,463L550.840000,425Z" fill="rgb(165,74,255)" stroke="none" stroke-width="1"/></g><g id="eoacfs55cb3l66"><rect id="eoacfs55cb3l67" width="172.040000" height="8.970000" rx="3" ry="3" transform="matrix(1 0 0 1 410.58999999999997 222.59000000000000)" fill="rgb(255,214,64)" stroke="none" stroke-width="1"/><rect id="eoacfs55cb3l68" width="162.920000" height="104.370000" rx="14" ry="14" transform="matrix(1 0 0 1 416.36000000000001 113.31999999999999)" fill="rgb(255,214,64)" stroke="none" stroke-width="1"/><rect id="eoacfs55cb3l69" width="133.930000" height="85.790000" rx="14" ry="14" transform="matrix(1 0 0 1 430.85000000000002 122.61000000000000)" fill="rgb(255,242,208)" stroke="none" stroke-width="1"/><path id="eoacfs55cb3l70" d="M453.590000,165.580000L467.360000,159.100000C464.735682,154.127825,459.391505,151.207890,453.789584,151.685438C448.187663,152.162986,443.414839,155.945367,441.670000,161.290000L441.620000,161.290000C441.030776,163.139021,440.839920,165.091885,441.060000,167.020000L441.060000,167.190000C441.060000,167.540000,441.150000,167.880000,441.220000,168.190000C441.290000,168.500000,441.310000,168.590000,441.350000,168.780000C441.390000,168.970000,441.450000,169.180000,441.510000,169.380000C441.570000,169.580000,441.700000,169.980000,441.810000,170.280000L441.900000,170.530000C441.960000,170.680000,442,170.830000,442.060000,170.980000L442.060000,170.980000C444.308003,176.127230,449.414591,179.432670,455.031021,179.376005C460.647451,179.319339,465.686307,175.911539,467.830000,170.720000Z" transform="matrix(1 0 0 1 2.35500000000195 0.00433001799993)" fill="rgb(165,74,255)" stroke="none" stroke-width="1"/><g id="eoacfs55cb3l71"><circle id="eoacfs55cb3l72" r="3.210000" transform="matrix(1 0 0 1 493.10000000000002 165.50999999999999)" fill="rgb(165,74,255)" stroke="none" stroke-width="1"/><circle id="eoacfs55cb3l73" r="3.210000" transform="matrix(1 0 0 1 481.43000000000001 165.50999999999999)" fill="rgb(165,74,255)" stroke="none" stroke-width="1"/></g><g id="eoacfs55cb3l74"><circle id="eoacfs55cb3l75" r="3.210000" transform="matrix(1 0 0 1 516.44000000000005 165.50999999999999)" fill="rgb(165,74,255)" fill-opacity="0.6" stroke="none" stroke-width="1"/><circle id="eoacfs55cb3l76" r="3.210000" transform="matrix(1 0 0 1 504.76999999999998 165.50999999999999)" fill="rgb(165,74,255)" stroke="none" stroke-width="1"/></g><g id="eoacfs55cb3l77"><circle id="eoacfs55cb3l78" r="3.210000" transform="matrix(1 0 0 1 528.11000000000001 165.50999999999999)" fill="rgb(165,74,255)" fill-opacity="0.5" stroke="none" stroke-width="1"/><circle id="eoacfs55cb3l79" r="3.210000" transform="matrix(1 0 0 1 539.76999999999998 165.50999999999999)" fill="rgb(165,74,255)" fill-opacity="0.4" stroke="none" stroke-width="1"/><circle id="eoacfs55cb3l80" r="3.210000" transform="matrix(1 0 0 1 551.44000000000005 165.50999999999999)" fill="rgb(165,74,255)" fill-opacity="0.41428571428571426" stroke="none" stroke-width="1" stroke-opacity="0.3"/></g></g></g></g><g id="eoacfs55cb3l81_to" transform="translate(300.768118,318.760294)"><g id="eoacfs55cb3l81" transform="translate(-296.848709,-334.110000)"><g id="eoacfs55cb3l82_tr" transform="translate(271.490590,183.903529) rotate(0)"><path id="eoacfs55cb3l82" d="M306.720000,196C305.720000,176.550000,283.990000,161.880000,258.250000,163.240000C242.250000,164.080000,228.490000,170.910000,220.580000,180.620000C220.580000,180.620000,234.030000,181.260000,242.580000,189.950000C271.140000,219,306.720000,196,306.720000,196Z" transform="translate(-271.490590,-183.903529)" fill="rgb(165,74,255)" stroke="none" stroke-width="1"/></g><g id="eoacfs55cb3l83_tr" transform="translate(331.990590,183.903529) rotate(0)"><path id="eoacfs55cb3l83" d="M292.840000,197.810000C292.930000,178.330000,313.900000,162.640000,339.670000,162.750000C355.670000,162.830000,369.770000,168.980000,378.130000,178.300000C378.130000,178.300000,364.730000,179.590000,356.630000,188.680000C329.480000,219.110000,292.840000,197.810000,292.840000,197.810000Z" transform="translate(-331.990590,-183.903529)" fill="rgb(165,74,255)" stroke="none" stroke-width="1"/></g><rect id="eoacfs55cb3l84" width="148.320000" height="148.320000" rx="47.370000" ry="47.370000" transform="matrix(1 0 0 1 220.02000000000001 222.12000000000000)" fill="rgb(255,242,208)" stroke="none" stroke-width="1"/><path id="eoacfs55cb3l85" d="M247.110000,368.260000C247.880000,370.260000,239.040000,371.830000,232.210000,368.260000C225.380000,364.690000,209.660000,345.610000,207,336.710000C204.340000,327.810000,207.860000,260.600000,226.910000,228.820000C227.030600,228.614995,227.164206,228.417925,227.310000,228.230000C229.644711,225.138097,232.155533,222.183206,234.830000,219.380000C236.553329,217.563712,239.213866,216.989568,241.532856,217.933523C243.851846,218.877478,245.355061,221.146495,245.320000,223.650000C245.284939,226.153505,235.670000,350.140000,247.110000,368.260000Z" fill="rgb(253,198,0)" stroke="none" stroke-width="1"/><path id="eoacfs55cb3l86" d="M365.700000,228.820000C365.700000,228.820000,343.700000,194.180000,297.320000,191.080000L295.260000,191.080000C248.890000,194.180000,226.880000,228.820000,226.880000,228.820000Z" fill="rgb(253,198,0)" stroke="none" stroke-width="1"/><path id="eoacfs55cb3l87" d="M345.590000,368.260000C344.820000,370.260000,353.660000,371.830000,360.490000,368.260000C367.320000,364.690000,383.040000,345.610000,385.730000,336.710000C388.420000,327.810000,384.870000,260.600000,365.820000,228.820000C365.699400,228.614995,365.565794,228.417925,365.420000,228.230000C363.085289,225.138097,360.574467,222.183206,357.900000,219.380000C356.176671,217.563712,353.516134,216.989568,351.197144,217.933523C348.878154,218.877478,347.374939,221.146495,347.410000,223.650000C347.445061,226.153505,357,350.140000,345.590000,368.260000Z" fill="rgb(253,198,0)" stroke="none" stroke-width="1"/><path id="eoacfs55cb3l88" d="M359.830000,229.860000C345.550000,220.060000,332.180000,218.040000,324.720000,217.810000C324.113899,216.145404,323.019514,214.702490,321.580000,213.670000C315.090000,209.890000,268.650000,210.310000,266.100000,212.200000C265.420000,212.710000,265.100000,214.890000,264.930000,218.100000C253.776133,219.367207,243.117921,223.410451,233.930000,229.860000C212.250000,244.760000,212.550000,297.510000,220.860000,302.780000C229.170000,308.050000,269.650000,298.870000,266.050000,289.160000C263.800000,283.160000,264.630000,271.240000,266.510000,258.890000C267.570000,268.170000,270.510000,289.300000,275.720000,291.760000C282.400000,294.910000,298.030000,299.330000,320.550000,293.230000C325.370000,290.950000,327.720000,272.750000,328.550000,259.970000C330.920000,273.060000,332.160000,285.670000,329.880000,291.820000C326.270000,301.530000,364.500000,308.060000,372.810000,302.820000C381.120000,297.580000,381.500000,244.760000,359.830000,229.860000Z" fill="rgb(253,198,0)" stroke="none" stroke-width="1"/><path id="eoacfs55cb3l89" d="M363.070000,443.710000C344.450000,377.320000,298.520000,377.920000,298.520000,377.920000L295.360000,377.920000C295.360000,377.920000,249.440000,377.320000,230.820000,443.710000Z" fill="rgb(165,74,255)" stroke="none" stroke-width="1"/></g></g><circle id="eoacfs55cb3l90" r="7.970000" transform="matrix(1 0 0 1 267.44000000000000 87.69000000000000)" fill="rgb(255,214,64)" stroke="none" stroke-width="1"/><circle id="eoacfs55cb3l91" r="7.970000" transform="matrix(1 0 0 1 389.68000000000001 87.69000000000000)" fill="rgb(165,74,255)" stroke="none" stroke-width="1"/><circle id="eoacfs55cb3l92" r="7.970000" transform="matrix(1 0 0 1 300.29000000000002 87.69000000000000)" fill="rgb(252,249,122)" stroke="none" stroke-width="1"/><circle id="eoacfs55cb3l93" r="7.970000" transform="matrix(1 0 0 1 335.91000000000003 499.63000000000000)" fill="rgb(252,249,122)" stroke="none" stroke-width="1"/><circle id="eoacfs55cb3l94" r="7.970000" transform="matrix(1 0 0 1 234.63000000000000 499.63000000000000)" fill="rgb(255,214,64)" stroke="none" stroke-width="1"/><circle id="eoacfs55cb3l95" r="7.970000" transform="matrix(1 0 0 1 366.22000000000003 499.63000000000000)" fill="rgb(165,74,255)" stroke="none" stroke-width="1"/></svg>