<svg id="emcu8oo5qbj1" xmlns="http://www.w3.org/2000/svg" xmlns:xlink="http://www.w3.org/1999/xlink" viewBox="0 0 545 578.100000" shape-rendering="geometricPrecision" text-rendering="geometricPrecision"><style><![CDATA[#emcu8oo5qbj3_to {animation: emcu8oo5qbj3_to__to 4000ms linear infinite normal forwards}@keyframes emcu8oo5qbj3_to__to { 0% {transform: translate(415.199982px,441.860482px);animation-timing-function: cubic-bezier(0.420000,0,0.580000,1)} 50% {transform: translate(415.199982px,429.860482px)} 100% {transform: translate(415.199982px,441.860482px)} }#emcu8oo5qbj10_to {animation: emcu8oo5qbj10_to__to 4000ms linear infinite normal forwards}@keyframes emcu8oo5qbj10_to__to { 0% {transform: translate(35.681151px,-4.885817px);animation-timing-function: cubic-bezier(0.420000,0,0.580000,1)} 50% {transform: translate(19.253168px,-4.885817px);animation-timing-function: cubic-bezier(0.420000,0,0.580000,1)} 100% {transform: translate(35.681151px,-4.885817px)} }#emcu8oo5qbj16_to {animation: emcu8oo5qbj16_to__to 4000ms linear infinite normal forwards}@keyframes emcu8oo5qbj16_to__to { 0% {transform: translate(-0.390997px,16.982789px);animation-timing-function: cubic-bezier(0.420000,0,0.580000,1)} 50% {transform: translate(14.190838px,16.982789px);animation-timing-function: cubic-bezier(0.420000,0,0.580000,1)} 100% {transform: translate(-0.390997px,16.982789px)} }#emcu8oo5qbj22 {animation: emcu8oo5qbj22_f_p 4000ms linear infinite normal forwards}@keyframes emcu8oo5qbj22_f_p { 0% {fill: rgb(252,249,122)} 25% {fill: rgb(165,74,255)} 50% {fill: rgb(165,74,255)} 75% {fill: rgb(252,249,122)} 100% {fill: rgb(252,249,122)} }]]></style><path id="emcu8oo5qbj2" d="M513.900000,299.665266C513.900000,426.010728,403.800000,502.091982,286.600000,528.330531C150,558.994859,-54.700000,419.793562,69.600000,299.665266C178.900000,194.184191,166.800000,71,286.600000,71C406.400000,71,513.900000,173.425179,513.900000,299.665266Z" fill="rgb(65,65,65)" stroke="none" stroke-width="1"/><g id="emcu8oo5qbj3_to" transform="translate(415.199982,441.860482)"><g id="emcu8oo5qbj3" transform="translate(0,0)"><path id="emcu8oo5qbj4" d="M-40.300000,-71.300000L-40.300000,-71.300000C-26.100000,-59.400000,-24.300000,-38.300000,-36.200000,-24.100000L-73.900000,20.800000C-85.800000,35,-106.900000,36.800000,-121.100000,24.900000L-121.100000,24.900000C-135.300000,13,-137.100000,-8.100000,-125.200000,-22.300000L-87.500000,-67.200000C-75.600000,-81.300000,-54.400000,-83.200000,-40.300000,-71.300000Z" fill="rgb(252,249,122)" stroke="none" stroke-width="1"/><path id="emcu8oo5qbj5" d="M10.800000,-191.600000C10.800000,-233.200000,-22.900000,-267,-64.600000,-267L-128,-267C-128.700000,-267,-129.400000,-267,-130.100000,-266.900000C-130.800000,-266.900000,-131.500000,-267,-132.200000,-267C-171.500000,-267,-203.400000,-235.100000,-203.400000,-195.800000L-203.400000,-19.900000C-203.400000,19.400000,-171.500000,51.300000,-132.200000,51.300000C-92.900000,51.300000,-61,19.400000,-61,-19.900000L-61,-116.300000C-21,-118.200000,10.800000,-151.200000,10.800000,-191.600000Z" fill="rgb(255,214,64)" stroke="none" stroke-width="1"/><path id="emcu8oo5qbj6" d="M-347.500000,-267C-357.600000,-267,-365.800000,-258.800000,-365.900000,-248.700000C-365.900000,-245.500000,-365.100000,-242.400000,-363.500000,-239.600000C-354.400000,-223.700000,-322.700000,-205.700000,-299.900000,-200C-165.900000,-166.500000,-87.300000,-267,-132.400000,-267L-347.500000,-267Z" fill="rgb(165,74,255)" stroke="none" stroke-width="1"/><path id="emcu8oo5qbj7" d="M-120.300000,24.900000C-134.500000,13,-136.300000,-8.100000,-124.400000,-22.300000C-124.400000,-22.300000,-124.400000,-22.300000,-124.400000,-22.300000L-86.700000,-67.200000C-80.300000,-74.800000,-70.900000,-79.200000,-60.900000,-79.200000L-60.900000,-20C-61,-4,-66.300000,11.500000,-76.100000,24C-88.500000,35.300000,-107.400000,35.700000,-120.300000,24.900000L-120.300000,24.900000Z" fill="rgb(165,74,255)" stroke="none" stroke-width="1"/><path id="emcu8oo5qbj8" d="M-137.100000,-267L-132.300000,-267C-99.600000,-267,-132,-214.100000,-203.500000,-197.800000C-201.400000,-235.600000,-174.700000,-264.800000,-137.100000,-267Z" fill="rgb(252,249,122)" stroke="none" stroke-width="1"/></g></g><g id="emcu8oo5qbj9" transform="matrix(1 0 0 1 -5.11232363000005 4)"><g id="emcu8oo5qbj10_to" transform="translate(35.681151,-4.885817)"><g id="emcu8oo5qbj10" transform="translate(0,0)"><path id="emcu8oo5qbj11" d="M200.200000,33C204.700000,33,209.200000,33.300000,213.700000,34C217.900000,34.700000,222.100000,35.600000,226.200000,36.900000C230.100000,38.100000,233.900000,39.700000,237.500000,41.600000C241,43.400000,244.300000,45.400000,247.400000,47.800000C250.400000,50,253.100000,52.500000,255.600000,55.300000C258,57.900000,260,60.800000,261.800000,63.900000C263.500000,66.900000,264.800000,70.100000,265.700000,73.400000C266.600000,76.700000,267.100000,80.100000,267.100000,83.600000L133.400000,83.600000C133.400000,80.200000,133.900000,76.700000,134.800000,73.400000C135.700000,70.100000,137,66.900000,138.700000,63.900000C140.400000,60.800000,142.500000,58,144.900000,55.300000C147.400000,52.600000,150.100000,50.100000,153.100000,47.800000C156.200000,45.500000,159.500000,43.400000,163,41.600000C166.700000,39.700000,170.400000,38.200000,174.300000,36.900000C178.400000,35.600000,182.600000,34.600000,186.800000,34C191.200000,33.300000,195.700000,33,200.200000,33Z" fill="rgb(165,74,255)" stroke="none" stroke-width="1"/><path id="emcu8oo5qbj12" d="M354.900000,150C360.800000,150,366.700000,149.600000,372.600000,148.700000C378.200000,147.800000,383.700000,146.500000,389.100000,144.800000C394.200000,143.200000,399.200000,141.100000,404,138.700000C408.600000,136.400000,412.900000,133.700000,417,130.600000C420.900000,127.700000,424.500000,124.400000,427.700000,120.800000C430.800000,117.300000,433.500000,113.600000,435.800000,109.500000C438,105.600000,439.700000,101.400000,440.900000,97C442.100000,92.600000,442.700000,88.100000,442.700000,83.600000L267.100000,83.600000C267.100000,88.100000,267.700000,92.600000,268.900000,97C270.100000,101.300000,271.800000,105.500000,274,109.500000C276.300000,113.500000,279,117.300000,282.100000,120.800000C285.400000,124.400000,288.900000,127.700000,292.800000,130.600000C296.900000,133.700000,301.200000,136.400000,305.800000,138.700000C310.600000,141.100000,315.600000,143.200000,320.700000,144.800000C326.100000,146.500000,331.600000,147.800000,337.200000,148.700000C343.100000,149.500000,349,150,354.900000,150Z" fill="rgb(255,214,64)" stroke="none" stroke-width="1"/><circle id="emcu8oo5qbj13" r="8" transform="matrix(1 0 0 1 268.04187978500011 45.29040200000000)" fill="rgb(165,74,255)" stroke="none" stroke-width="1"/><circle id="emcu8oo5qbj14" r="8" transform="matrix(1 0 0 1 305.40170729500011 45.29040200000000)" fill="rgb(255,214,64)" stroke="none" stroke-width="1"/><circle id="emcu8oo5qbj15" r="8" transform="matrix(1 0 0 1 369.74534020500010 45.29040200000000)" fill="rgb(252,249,122)" stroke="none" stroke-width="1"/></g></g></g><g id="emcu8oo5qbj16_to" transform="translate(-0.390997,16.982789)"><g id="emcu8oo5qbj16" transform="translate(0,0)"><path id="emcu8oo5qbj17" d="M273.600000,545.100000C268.300000,545.100000,263.100000,544.700000,257.900000,543.900000C252.900000,543.100000,248,542,243.300000,540.500000C238.700000,539,234.300000,537.200000,230,535.100000C225.900000,533,222.100000,530.600000,218.400000,527.900000C214.900000,525.300000,211.800000,522.400000,208.900000,519.200000C206.100000,516.100000,203.700000,512.800000,201.700000,509.200000C199.700000,505.700000,198.200000,502,197.200000,498.100000C196.200000,494.200000,195.600000,490.200000,195.600000,486.200000L351.700000,486.200000C351.700000,490.200000,351.200000,494.200000,350.100000,498.100000C349,502,347.500000,505.700000,345.600000,509.200000C343.600000,512.800000,341.200000,516.200000,338.400000,519.200000C335.500000,522.400000,332.300000,525.300000,328.900000,527.900000C325.300000,530.600000,321.400000,533,317.300000,535.100000C313,537.300000,308.600000,539.100000,304,540.500000C299.200000,542,294.300000,543.200000,289.400000,543.900000C284.200000,544.700000,278.900000,545.100000,273.600000,545.100000Z" fill="rgb(165,74,255)" stroke="none" stroke-width="1"/><path id="emcu8oo5qbj18" d="M133.400000,439.100000C129.200000,439.100000,125,439.400000,120.900000,440.100000C116.900000,440.700000,113,441.600000,109.200000,442.800000C105.600000,444,102,445.400000,98.600000,447.100000C95.400000,448.700000,92.300000,450.700000,89.400000,452.800000C86.700000,454.900000,84.100000,457.200000,81.800000,459.700000C79.600000,462.100000,77.700000,464.800000,76.100000,467.700000C74.500000,470.500000,73.300000,473.400000,72.500000,476.500000C71.700000,479.600000,71.200000,482.800000,71.200000,486L195.500000,486C195.500000,482.800000,195.100000,479.600000,194.200000,476.500000C193.400000,473.400000,192.100000,470.500000,190.600000,467.700000C189,464.800000,187.100000,462.200000,184.900000,459.700000C182.600000,457.100000,180.100000,454.800000,177.300000,452.800000C174.400000,450.600000,171.300000,448.700000,168.100000,447.100000C164.700000,445.400000,161.200000,443.900000,157.500000,442.800000C153.700000,441.600000,149.800000,440.700000,145.800000,440.100000C141.800000,439.400000,137.600000,439.100000,133.400000,439.100000Z" fill="rgb(255,214,64)" stroke="none" stroke-width="1"/><circle id="emcu8oo5qbj19" r="8" transform="matrix(1.29970538578239 0 0 1.32216068621663 133.42418886933143 359.16885887244428)" fill="rgb(252,249,122)" stroke="none" stroke-width="1"/><circle id="emcu8oo5qbj20" r="8" transform="matrix(2.13091084433752 0 0 2.13091084433752 133.35000000000014 403.69262841000432)" fill="rgb(255,214,64)" stroke="none" stroke-width="1"/><circle id="emcu8oo5qbj21" r="8" transform="matrix(0.77407332462927 0 0 0.77407332462927 133.34999999999954 323.22027969613032)" fill="rgb(165,74,255)" stroke="none" stroke-width="1"/></g></g><path id="emcu8oo5qbj22" d="M395.900000,351.300000L398.200000,339.700000C399.300000,333.900000,405,330.100000,410.800000,331.200000L410.800000,331.200000L410.800000,331.200000C417.800000,332.600000,422.400000,339.300000,421,346.300000C421,346.300000,421,346.300000,421,346.300000L421,346.300000C419.900000,352.100000,414.200000,355.900000,408.400000,354.800000C408.400000,354.800000,408.400000,354.800000,408.400000,354.800000L396.800000,352.500000C396.200000,352.500000,395.800000,351.900000,395.900000,351.300000C395.900000,351.300000,395.900000,351.300000,395.900000,351.300000Z" transform="matrix(1.41494575760370 0.04810941641692 -0.04401579940362 1.29454841218527 -144.21604103853912 -117.08628676882830)" fill="rgb(252,249,122)" stroke="none" stroke-width="1"/></svg>