<svg id="eqmeyq496jnq1" xmlns="http://www.w3.org/2000/svg" xmlns:xlink="http://www.w3.org/1999/xlink" viewBox="0 0 772.160000 768" shape-rendering="geometricPrecision" text-rendering="geometricPrecision"><style><![CDATA[#eqmeyq496jnq2_to {animation: eqmeyq496jnq2_to__to 4000ms linear infinite normal forwards}@keyframes eqmeyq496jnq2_to__to { 0% {transform: translate(0px,0px);animation-timing-function: cubic-bezier(0.420000,0,0.580000,1)} 25% {transform: translate(0.000006px,5.440006px);animation-timing-function: cubic-bezier(0.420000,0,0.580000,1)} 50% {transform: translate(0px,0px);animation-timing-function: cubic-bezier(0.420000,0,0.580000,1)} 75% {transform: translate(0.000006px,5.440006px);animation-timing-function: cubic-bezier(0.420000,0,0.580000,1)} 100% {transform: translate(0px,0px)} }#eqmeyq496jnq23_to {animation: eqmeyq496jnq23_to__to 4000ms linear infinite normal forwards}@keyframes eqmeyq496jnq23_to__to { 0% {transform: translate(7.476965px,-11.800699px)} 12.500000% {transform: translate(12.454267px,-15.447011px)} 25% {transform: translate(7.478862px,-11.800699px)} 37.500000% {transform: translate(12.454267px,-15.447011px)} 50% {transform: translate(7.478862px,-11.800699px)} 62.500000% {transform: translate(12.454267px,-15.447011px)} 75% {transform: translate(7.478862px,-11.800699px)} 87.500000% {transform: translate(12.454267px,-15.447011px)} 100% {transform: translate(7.478862px,-11.800699px)} }#eqmeyq496jnq24_to {animation: eqmeyq496jnq24_to__to 4000ms linear infinite normal forwards}@keyframes eqmeyq496jnq24_to__to { 0% {transform: translate(0.001881px,-9.119376px);animation-timing-function: cubic-bezier(0.420000,0,0.580000,1)} 25% {transform: translate(0.001881px,-3.119376px);animation-timing-function: cubic-bezier(0.420000,0,0.580000,1)} 50% {transform: translate(0.001881px,-9.123743px);animation-timing-function: cubic-bezier(0.420000,0,0.580000,1)} 75% {transform: translate(0.001881px,-3.123743px);animation-timing-function: cubic-bezier(0.420000,0,0.580000,1)} 100% {transform: translate(0.001881px,-9.123743px)} }#eqmeyq496jnq27 {animation: eqmeyq496jnq27__m 4000ms linear infinite normal forwards}@keyframes eqmeyq496jnq27__m { 0% {d: path('M43.627353,50L56.230693,50')} 12.500000% {d: path('M29.890183,50L56.230693,50')} 25% {d: path('M43.630000,50L56.230693,50')} 37.500000% {d: path('M29.890000,50L56.230693,50')} 50% {d: path('M43.630000,50L56.230693,50')} 62.500000% {d: path('M29.890000,50L56.230693,50')} 75% {d: path('M43.630000,50L56.230693,50')} 87.500000% {d: path('M29.890000,50L56.230693,50')} 100% {d: path('M43.630000,50L56.230693,50')} }#eqmeyq496jnq32_ts {animation: eqmeyq496jnq32_ts__ts 4000ms linear infinite normal forwards}@keyframes eqmeyq496jnq32_ts__ts { 0% {transform: translate(339.545110px,152.709908px) scale(1,1)} 50% {transform: translate(339.545110px,152.709908px) scale(1.508320,1.508320)} 100% {transform: translate(339.545110px,152.709908px) scale(1,1)} }#eqmeyq496jnq33_ts {animation: eqmeyq496jnq33_ts__ts 4000ms linear infinite normal forwards}@keyframes eqmeyq496jnq33_ts__ts { 0% {transform: translate(233.895000px,99.300000px) scale(1,1)} 50% {transform: translate(233.895000px,99.300000px) scale(0.461272,0.461272)} 100% {transform: translate(233.895000px,99.300000px) scale(1,1)} }#eqmeyq496jnq36 {animation: eqmeyq496jnq36_s_do 4000ms linear infinite normal forwards}@keyframes eqmeyq496jnq36_s_do { 0% {stroke-dashoffset: 0} 100% {stroke-dashoffset: -42} }#eqmeyq496jnq37 {animation: eqmeyq496jnq37__m 4000ms linear infinite normal forwards}@keyframes eqmeyq496jnq37__m { 0% {d: path('M22.830000,50L56.230693,50')} 12.500000% {d: path('M22.830000,50L42.830000,50')} 25% {d: path('M22.830000,50L56.230000,50')} 37.500000% {d: path('M22.830000,50L42.830000,50')} 50% {d: path('M22.830000,50L56.230000,50')} 62.500000% {d: path('M22.830000,50L42.830000,50')} 75% {d: path('M22.830000,50L56.230000,50')} 87.500000% {d: path('M22.830000,50L42.830000,50')} 100% {d: path('M22.830000,50L56.230000,50')} }#eqmeyq496jnq37_to {animation: eqmeyq496jnq37_to__to 4000ms linear infinite normal forwards}@keyframes eqmeyq496jnq37_to__to { 0% {transform: translate(261.150000px,121.335855px)} 12.500000% {transform: translate(278.773097px,112.891326px)} 25% {transform: translate(261.150000px,121.335855px)} 37.500000% {transform: translate(278.773097px,112.891326px)} 50% {transform: translate(261.150000px,121.335855px)} 62.500000% {transform: translate(278.773097px,112.891326px)} 75% {transform: translate(261.150000px,121.335855px)} 87.500000% {transform: translate(278.773097px,112.891326px)} 100% {transform: translate(261.150000px,121.335855px)} }#eqmeyq496jnq38_to {animation: eqmeyq496jnq38_to__to 4000ms linear infinite normal forwards}@keyframes eqmeyq496jnq38_to__to { 0% {transform: translate(0px,0px)} 12.500000% {transform: translate(5.697547px,-2.327168px)} 25% {transform: translate(0px,0px)} 37.500000% {transform: translate(5.697547px,-2.327168px)} 50% {transform: translate(0px,0px)} 62.500000% {transform: translate(5.697547px,-2.327168px)} 75% {transform: translate(0px,0px)} 87.500000% {transform: translate(5.697547px,-2.327168px)} 100% {transform: translate(0px,0px)} }#eqmeyq496jnq39 {animation: eqmeyq496jnq39__m 4000ms linear infinite normal forwards}@keyframes eqmeyq496jnq39__m { 0% {d: path('M53.346929,50L56.230693,50')} 12.500000% {d: path('M37.582276,50L42.385097,50')} 25% {d: path('M53.350000,50L56.230000,50')} 37.500000% {d: path('M37.580000,50L42.390000,50')} 50% {d: path('M53.350000,50L56.230000,50')} 62.500000% {d: path('M37.580000,50L42.390000,50')} 75% {d: path('M53.350000,50L56.230000,50')} 87.500000% {d: path('M37.580000,50L42.390000,50')} 100% {d: path('M53.350000,50L56.230000,50')} }#eqmeyq496jnq40 {animation: eqmeyq496jnq40__m 4000ms linear infinite normal forwards}@keyframes eqmeyq496jnq40__m { 0% {d: path('M37.196180,50L45.200906,50')} 12.500000% {d: path('M19.279109,50L45.200906,50')} 25% {d: path('M37.200000,50L45.200906,50')} 37.500000% {d: path('M19.280000,50L45.200906,50')} 50% {d: path('M37.200000,50L45.200906,50')} 62.500000% {d: path('M19.280000,50L45.200906,50')} 75% {d: path('M37.200000,50L45.200906,50')} 87.500000% {d: path('M19.280000,50L45.200906,50')} 100% {d: path('M37.200000,50L45.200906,50')} }#eqmeyq496jnq40_to {animation: eqmeyq496jnq40_to__to 4000ms linear infinite normal forwards}@keyframes eqmeyq496jnq40_to__to { 0% {transform: translate(287.211000px,151.140020px)} 12.500000% {transform: translate(292.014468px,148.233187px)} 25% {transform: translate(287.211000px,151.140020px)} 37.500000% {transform: translate(292.014468px,148.233187px)} 50% {transform: translate(287.211000px,151.140020px)} 62.500000% {transform: translate(292.014468px,148.233187px)} 75% {transform: translate(287.211000px,151.140020px)} 87.500000% {transform: translate(292.014468px,148.233187px)} 100% {transform: translate(287.211000px,151.140020px)} }]]></style><defs><linearGradient id="eqmeyq496jnq36-stroke" x1="0.283626" y1="0.110059" x2="0.287592" y2="0.873068" spreadMethod="pad" gradientUnits="objectBoundingBox"><stop id="eqmeyq496jnq36-stroke-0" offset="0%" stop-color="rgb(251,248,124)"/><stop id="eqmeyq496jnq36-stroke-1" offset="100%" stop-color="rgb(165,76,253)"/></linearGradient></defs><g id="eqmeyq496jnq2_to" transform="translate(0,0)"><g id="eqmeyq496jnq2" transform="translate(0,0)"><rect id="eqmeyq496jnq3" display="none" width="772.160000" height="775.427588" rx="0" ry="0" transform="matrix(1 0 0 1 0 -7.42758800000001)" fill="rgb(50,50,50)" stroke="none" stroke-width="1"/><rect id="eqmeyq496jnq4" width="470.280000" height="13.380000" rx="5.020000" ry="5.020000" transform="matrix(1 0 0 1 174.47000000000000 588.79999999999995)" fill="rgb(254,213,69)" stroke="none" stroke-width="1"/><rect id="eqmeyq496jnq5" width="481.950000" height="298.680000" rx="24.030000" ry="24.030000" transform="matrix(1 0 0 1 168.63000000000000 280.62000000000000)" fill="rgb(254,213,69)" stroke="none" stroke-width="1"/><rect id="eqmeyq496jnq6" width="440.210000" height="263.460000" rx="21.570000" ry="21.570000" transform="matrix(1 0 0 1 189.50000000000000 298.23000000000002)" fill="rgb(50,50,50)" stroke="none" stroke-width="1"/><path id="eqmeyq496jnq7" d="M508.780000,493.250000L504.590000,493.250000C503.645138,493.320377,502.914443,494.107521,502.914443,495.055000C502.914443,496.002479,503.645138,496.789623,504.590000,496.860000L508.780000,496.860000C509.724862,496.789623,510.455557,496.002479,510.455557,495.055000C510.455557,494.107521,509.724862,493.320377,508.780000,493.250000Z" fill="rgb(251,248,124)" stroke="none" stroke-width="1"/><path id="eqmeyq496jnq8" d="M499.880000,484.880000C499.402610,484.880000,498.944773,485.069642,498.607208,485.407208C498.269642,485.744773,498.080000,486.202610,498.080000,486.680000L498.080000,490.860000C498.080000,491.854113,498.885887,492.660000,499.880000,492.660000C500.874113,492.660000,501.680000,491.854113,501.680000,490.860000L501.680000,486.680000C501.674535,485.688160,500.871840,484.885465,499.880000,484.880000Z" fill="rgb(251,248,124)" stroke="none" stroke-width="1"/><path id="eqmeyq496jnq9" d="M517.710000,353.080000L513.530000,353.080000C512.853065,353.029579,512.204826,353.362160,511.850958,353.941436C511.497090,354.520711,511.497090,355.249289,511.850958,355.828564C512.204826,356.407840,512.853065,356.740421,513.530000,356.690000L517.710000,356.690000C518.654862,356.619623,519.385557,355.832479,519.385557,354.885000C519.385557,353.937521,518.654862,353.150377,517.710000,353.080000Z" fill="rgb(254,213,69)" stroke="none" stroke-width="1"/><path id="eqmeyq496jnq10" d="M531.320000,352.790000L527.140000,352.790000C526.195138,352.860377,525.464443,353.647521,525.464443,354.595000C525.464443,355.542479,526.195138,356.329623,527.140000,356.400000L531.320000,356.400000C531.996935,356.450421,532.645174,356.117840,532.999042,355.538564C533.352910,354.959289,533.352910,354.230711,532.999042,353.651436C532.645174,353.072160,531.996935,352.739579,531.320000,352.790000Z" fill="rgb(254,213,69)" stroke="none" stroke-width="1"/><path id="eqmeyq496jnq11" d="M495.160000,493.540000L491,493.540000C490.005887,493.540000,489.200000,494.345887,489.200000,495.340000C489.200000,496.334113,490.005887,497.140000,491,497.140000L495.180000,497.140000C496.174113,497.140000,496.980000,496.334113,496.980000,495.340000C496.980000,494.345887,496.174113,493.540000,495.180000,493.540000Z" fill="rgb(251,248,124)" stroke="none" stroke-width="1"/><path id="eqmeyq496jnq12" d="M499.880000,497.730000C499.402610,497.730000,498.944773,497.919642,498.607208,498.257208C498.269642,498.594773,498.080000,499.052610,498.080000,499.530000L498.080000,503.710000C498.080000,504.704113,498.885887,505.510000,499.880000,505.510000C500.874113,505.510000,501.680000,504.704113,501.680000,503.710000L501.680000,499.530000C501.674535,498.538160,500.871840,497.735465,499.880000,497.730000Z" fill="rgb(251,248,124)" stroke="none" stroke-width="1"/><path id="eqmeyq496jnq13" d="M314.130000,363.580000L311.410000,363.580000C310.802931,363.636064,310.338513,364.145347,310.338513,364.755000C310.338513,365.364653,310.802931,365.873936,311.410000,365.930000L314.130000,365.930000C314.575668,365.971158,315.006260,365.756637,315.241833,365.376086C315.477406,364.995535,315.477406,364.514465,315.241833,364.133914C315.006260,363.753363,314.575668,363.538842,314.130000,363.580000Z" fill="rgb(251,248,124)" stroke="none" stroke-width="1"/><path id="eqmeyq496jnq14" d="M308.340000,358.130000C307.692189,358.129977,307.165490,358.652213,307.160000,359.300000L307.160000,362C307.118842,362.445668,307.333363,362.876260,307.713914,363.111833C308.094465,363.347406,308.575535,363.347406,308.956086,363.111833C309.336637,362.876260,309.551158,362.445668,309.510000,362L309.510000,359.300000C309.510000,358.989697,309.386732,358.692103,309.167315,358.472685C308.947897,358.253268,308.650303,358.130000,308.340000,358.130000Z" fill="rgb(251,248,124)" stroke="none" stroke-width="1"/><path id="eqmeyq496jnq15" d="M305.270000,363.770000L302.540000,363.770000C301.932931,363.826064,301.468513,364.335347,301.468513,364.945000C301.468513,365.554653,301.932931,366.063936,302.540000,366.120000L305.270000,366.120000C305.877069,366.063936,306.341487,365.554653,306.341487,364.945000C306.341487,364.335347,305.877069,363.826064,305.270000,363.770000Z" fill="rgb(251,248,124)" stroke="none" stroke-width="1"/><path id="eqmeyq496jnq16" d="M308.340000,366.500000C307.692189,366.499977,307.165490,367.022213,307.160000,367.670000L307.160000,370.400000C307.216064,371.007069,307.725347,371.471487,308.335000,371.471487C308.944653,371.471487,309.453936,371.007069,309.510000,370.400000L309.510000,367.670000C309.510000,367.359697,309.386732,367.062103,309.167315,366.842685C308.947897,366.623268,308.650303,366.500000,308.340000,366.500000Z" fill="rgb(251,248,124)" stroke="none" stroke-width="1"/><path id="eqmeyq496jnq17" d="M336.160000,512.820000L333.700000,512.820000C333.114578,512.820000,332.640000,513.294578,332.640000,513.880000C332.640000,514.465422,333.114578,514.940000,333.700000,514.940000L336.160000,514.940000C336.745422,514.940000,337.220000,514.465422,337.220000,513.880000C337.220000,513.294578,336.745422,512.820000,336.160000,512.820000Z" fill="rgb(254,213,69)" stroke="none" stroke-width="1"/><path id="eqmeyq496jnq18" d="M330.920000,507.890000C330.638871,507.890000,330.369255,508.001678,330.170467,508.200467C329.971678,508.399255,329.860000,508.668871,329.860000,508.950000L329.860000,511.410000C329.860000,511.995422,330.334578,512.470000,330.920000,512.470000C331.505422,512.470000,331.980000,511.995422,331.980000,511.410000L331.980000,509C331.996643,508.709534,331.892021,508.425184,331.691087,508.214772C331.490154,508.004361,331.210924,507.886753,330.920000,507.890000Z" fill="rgb(254,213,69)" stroke="none" stroke-width="1"/><path id="eqmeyq496jnq19" d="M328.140000,513L325.680000,513C325.094578,513,324.620000,513.474578,324.620000,514.060000C324.620000,514.645422,325.094578,515.120000,325.680000,515.120000L328.140000,515.120000C328.725422,515.120000,329.200000,514.645422,329.200000,514.060000C329.200000,513.474578,328.725422,513,328.140000,513Z" fill="rgb(254,213,69)" stroke="none" stroke-width="1"/><path id="eqmeyq496jnq20" d="M330.920000,515.460000C330.334578,515.460000,329.860000,515.934578,329.860000,516.520000L329.860000,519C329.860000,519.585422,330.334578,520.060000,330.920000,520.060000C331.505422,520.060000,331.980000,519.585422,331.980000,519L331.980000,516.540000C331.988171,516.254618,331.879781,515.978213,331.679798,515.774457C331.479816,515.570701,331.205485,515.457164,330.920000,515.460000Z" fill="rgb(254,213,69)" stroke="none" stroke-width="1"/><path id="eqmeyq496jnq21" d="M522.420000,344.420000C521.428160,344.425465,520.625465,345.228160,520.620000,346.220000L520.620000,350.400000C520.690377,351.344862,521.477521,352.075557,522.425000,352.075557C523.372479,352.075557,524.159623,351.344862,524.230000,350.400000L524.230000,346.220000C524.224499,345.224272,523.415743,344.419985,522.420000,344.420000Z" fill="rgb(254,213,69)" stroke="none" stroke-width="1"/><path id="eqmeyq496jnq22" d="M522.420000,357.280000C521.425887,357.280000,520.620000,358.085887,520.620000,359.080000L520.620000,363.260000C520.690377,364.204862,521.477521,364.935557,522.425000,364.935557C523.372479,364.935557,524.159623,364.204862,524.230000,363.260000L524.230000,359.080000C524.230007,358.600873,524.038993,358.141514,523.699262,357.803659C523.359530,357.465805,522.899120,357.277338,522.420000,357.280000Z" fill="rgb(254,213,69)" stroke="none" stroke-width="1"/></g></g><g id="eqmeyq496jnq23_to" transform="translate(7.476965,-11.800699)"><path id="eqmeyq496jnq23" d="M320.920000,130.270000L319.830000,131.500000L295.580000,159C292.140000,162.900000,289.970000,164.820000,287.650000,164.470000C287.411453,164.432497,287.177048,164.372221,286.950000,164.290000C285.260000,163.680000,284.440000,161.850000,283.430000,159.600000C283.399199,159.541924,283.372468,159.481779,283.350000,159.420000L262.650000,153.350000C261.796354,153.152333,261.170776,152.422016,261.106554,151.548140C261.042332,150.674265,261.554423,149.860339,262.370000,149.540000L275.860000,143.280000L270.490000,131.720000C268.940000,128.390000,268.220000,125.950000,269.390000,124.080000C270.680000,122.080000,273.240000,122,277.130000,121.940000L278.760000,121.940000L315.410000,121.150000C320.640000,121.040000,323.300000,121.350000,324.240000,123.400000C325.180000,125.450000,323.510000,127.390000,320.920000,130.270000ZM319.820000,125.270000C318.380259,125.145085,316.934226,125.108349,315.490000,125.160000L278.850000,125.950000L277.180000,125.950000C275.747222,125.903135,274.313360,126.000290,272.900000,126.240000C273.124360,127.526183,273.560262,128.766307,274.190000,129.910000L279.560000,141.480000L303.210000,130.480000C304.231727,130.005035,305.445035,130.448273,305.920000,131.470000C306.394965,132.491727,305.951727,133.705035,304.930000,134.180000L279.440000,146.020000L279.440000,146.020000L269,151L281.060000,154.540000L279.620000,151.430000C279.221152,150.681426,279.337867,149.762680,279.911221,149.137613C280.484574,148.512545,281.389850,148.317119,282.170000,148.650000C282.677773,148.838419,283.090916,149.219229,283.320000,149.710000L286.580000,156.710000C286.780000,157.150000,286.970000,157.560000,287.140000,157.950000C287.484691,158.773255,287.885639,159.571809,288.340000,160.340000C288.840000,160.070000,289.990000,159.170000,292.510000,156.340000L316.750000,128.860000C317.140000,128.410000,317.520000,128,317.870000,127.600000C318.540000,126.810000,319.290000,126,319.820000,125.310000Z" transform="translate(0,0)" fill="rgb(251,248,124)" stroke="none" stroke-width="1"/></g><g id="eqmeyq496jnq24_to" transform="translate(0.001881,-9.119376)"><g id="eqmeyq496jnq24" transform="translate(0,0)"><path id="eqmeyq496jnq25" d="M468.830000,363.840000C452.636937,348.068370,430.820074,339.409999,408.218777,339.785467C385.617480,340.160935,364.100254,349.539201,348.440000,365.840000C315.900000,399.690000,317.770000,453.840000,351.510000,486.490000L400.780000,534.170000C403.642120,536.936635,407.486582,538.452142,411.466681,538.382743C415.446779,538.313345,419.236071,536.664733,422,533.800000L469.670000,484.530000C502.360000,450.790000,502.460000,396.610000,468.830000,363.840000Z" fill="rgb(165,76,253)" stroke="none" stroke-width="1"/><path id="eqmeyq496jnq26" d="M447.930000,399L371.280000,399C364.737711,399.005514,359.435514,404.307711,359.430000,410.850000L359.430000,467.250000C359.435514,473.792289,364.737711,479.094486,371.280000,479.100000L447.930000,479.100000C454.470008,479.088990,459.768990,473.790008,459.780000,467.250000L459.780000,410.850000C459.768990,404.309992,454.470008,399.011010,447.930000,399ZM371.280000,407.290000L447.930000,407.290000C449.897758,407.289992,451.494488,408.882250,451.500000,410.850000L451.500000,413.760000L410.430000,439.830000C409.926400,440.149500,409.283600,440.149500,408.780000,439.830000L367.710000,413.760000L367.710000,410.850000C367.726471,408.890069,369.320000,407.309931,371.280000,407.310000ZM447.930000,470.810000L371.280000,470.810000C369.312242,470.810008,367.715512,469.217750,367.710000,467.250000L367.710000,423.590000L404.340000,446.840000C407.553311,448.880959,411.656689,448.880959,414.870000,446.840000L451.500000,423.590000L451.500000,467.270000C451.494488,469.237750,449.897758,470.830008,447.930000,470.830000Z" fill="rgb(255,255,255)" stroke="none" stroke-width="1"/></g></g><path id="eqmeyq496jnq27" d="M43.627353,50L56.230693,50" transform="matrix(0.94658833634688 -0.32244460220639 0.32244460220639 0.94658833634688 210.34790920437737 95.49071900054128)" fill="none" stroke="rgb(251,248,124)" stroke-width="4" stroke-linecap="round" stroke-miterlimit="10"/><path id="eqmeyq496jnq28" d="M255.670000,187C255.160285,187.005481,254.749971,187.420255,254.750000,187.930000L254.750000,190.070000C254.799328,190.543778,255.198661,190.903693,255.675000,190.903693C256.151339,190.903693,256.550672,190.543778,256.600000,190.070000L256.600000,187.930000C256.600000,187.683349,256.502018,187.446800,256.327609,187.272391C256.153200,187.097982,255.916651,187,255.670000,187Z" fill="rgb(255,252,204)" stroke="none" stroke-width="1"/><path id="eqmeyq496jnq29" d="M253.250000,184.850000L251.110000,184.850000C250.636222,184.899328,250.276307,185.298661,250.276307,185.775000C250.276307,186.251339,250.636222,186.650672,251.110000,186.700000L253.250000,186.700000C253.603435,186.736798,253.946946,186.568979,254.135152,186.267568C254.323358,185.966156,254.323358,185.583844,254.135152,185.282432C253.946946,184.981021,253.603435,184.813202,253.250000,184.850000Z" fill="rgb(255,252,204)" stroke="none" stroke-width="1"/><path id="eqmeyq496jnq30" d="M255.670000,180.410000C255.160285,180.415481,254.749971,180.830255,254.750000,181.340000L254.750000,183.480000C254.799328,183.953778,255.198661,184.313693,255.675000,184.313693C256.151339,184.313693,256.550672,183.953778,256.600000,183.480000L256.600000,181.340000C256.600000,181.093349,256.502018,180.856800,256.327609,180.682391C256.153200,180.507982,255.916651,180.410000,255.670000,180.410000Z" fill="rgb(255,252,204)" stroke="none" stroke-width="1"/><path id="eqmeyq496jnq31" d="M260.230000,184.710000L258.090000,184.710000C257.581898,184.710000,257.170000,185.121898,257.170000,185.630000C257.170000,186.138102,257.581898,186.550000,258.090000,186.550000L260.230000,186.550000C260.738102,186.550000,261.150000,186.138102,261.150000,185.630000C261.150000,185.121898,260.738102,184.710000,260.230000,184.710000Z" fill="rgb(255,252,204)" stroke="none" stroke-width="1"/><g id="eqmeyq496jnq32_ts" transform="translate(339.545110,152.709908) scale(1,1)"><path id="eqmeyq496jnq32" d="M335.250000,141.670000C335.250000,141.670000,336.250000,148.670000,328.090000,148.470000C328.090000,148.470000,335.090000,148.540000,334.900000,155.080000C334.900000,155.080000,335.530000,149.940000,341.900000,148.790000C341.940000,148.790000,336.520000,150,335.250000,141.670000Z" transform="translate(-334.995110,-148.375000)" fill="rgb(251,248,124)" stroke="none" stroke-width="1"/></g><g id="eqmeyq496jnq33_ts" transform="translate(233.895000,99.300000) scale(1,1)"><path id="eqmeyq496jnq33" d="M234.250000,89.270000C234.250000,89.270000,235.710000,99.690000,223.540000,99.450000C223.540000,99.450000,233.990000,99.550000,233.720000,109.330000C233.720000,109.330000,234.660000,101.640000,244.250000,99.920000C244.250000,99.920000,236.150000,101.780000,234.250000,89.270000Z" transform="translate(-233.895000,-99.300000)" fill="rgb(251,248,124)" stroke="none" stroke-width="1"/></g><g id="eqmeyq496jnq34" opacity="0.6"><path id="eqmeyq496jnq35" d="M332,215.900000L301.300000,215.900000C297.462033,215.832234,294.368661,212.734239,294.306626,208.896175C294.244592,205.058111,297.236228,201.861765,301.070000,201.670000C301.130482,196.818632,304.362268,192.579805,309.024458,191.236891C313.686648,189.893978,318.678093,191.764157,321.310000,195.840000C325.312817,195.258703,329.119779,197.756620,330.180000,201.660000L332,201.660000C335.932267,201.660000,339.120000,204.847733,339.120000,208.780000C339.120000,212.712267,335.932267,215.900000,332,215.900000ZM301.300000,203.770000C298.538576,203.770000,296.300000,206.008576,296.300000,208.770000C296.300000,211.531424,298.538576,213.770000,301.300000,213.770000L332,213.770000C334.761424,213.770000,337,211.531424,337,208.770000C337,206.008576,334.761424,203.770000,332,203.770000L328.460000,203.770000L328.320000,202.880000C328.083260,201.217238,327.149092,199.734180,325.751638,198.802544C324.354183,197.870908,322.625911,197.579005,321,198L320.220000,198.190000L319.830000,197.490000C317.853900,193.949836,313.736910,192.190138,309.812483,193.208279C305.888057,194.226420,303.145806,197.765657,303.140000,201.820000C303.140000,202.080000,303.140000,202.340000,303.140000,202.600000L303.230000,203.740000Z" fill="rgb(255,255,255)" stroke="none" stroke-width="1"/></g><path id="eqmeyq496jnq36" d="M315.241833,446.840000C261.394903,446.840000,125.595765,425.504729,85.312264,368.720741C52.560127,322.545803,57.034780,263.003036,91.867340,223.165835C105.988648,207.017921,125.154111,193.341193,148.666379,189.080529C172.178648,184.819866,200.293417,191.242816,216.169719,208.413289C232.046021,225.583761,228.338451,251.669672,207.789914,261.511803C182.348314,273.697300,151.537131,259.562550,142.227528,235.851960C121.934685,184.212722,176.472212,147.563153,245.341647,137.739301" fill="none" stroke="url(#eqmeyq496jnq36-stroke)" stroke-width="7" stroke-linecap="round" stroke-linejoin="round" stroke-miterlimit="10" stroke-dasharray="30,12"/><g id="eqmeyq496jnq37_to" transform="translate(261.150000,121.335855)"><path id="eqmeyq496jnq37" d="M22.830000,50L56.230693,50" transform="rotate(-18.810829) translate(-39.530347,-50)" fill="none" stroke="rgb(251,248,124)" stroke-width="4" stroke-linecap="round" stroke-miterlimit="10"/></g><g id="eqmeyq496jnq38_to" transform="translate(0,0)"><g id="eqmeyq496jnq38" transform="translate(0,0)"><path id="eqmeyq496jnq39" d="M53.346929,50L56.230693,50" transform="matrix(0.94658833634688 -0.32244460220639 0.32244460220639 0.94658833634688 192.85693320437721 101.82182070054120)" fill="none" stroke="rgb(251,248,124)" stroke-width="4" stroke-linecap="round" stroke-miterlimit="10"/></g></g><g id="eqmeyq496jnq40_to" transform="translate(287.211000,151.140020)"><path id="eqmeyq496jnq40" d="M37.196180,50L45.200906,50" transform="rotate(-20.138017) translate(-39.608179,-50)" fill="none" stroke="rgb(251,248,124)" stroke-width="4" stroke-linecap="round" stroke-miterlimit="10"/></g></svg>