<svg id="eigk4uzu8pco1" xmlns="http://www.w3.org/2000/svg" xmlns:xlink="http://www.w3.org/1999/xlink" viewBox="0 0 727.030000 768" shape-rendering="geometricPrecision" text-rendering="geometricPrecision"><style><![CDATA[#eigk4uzu8pco5_to {animation: eigk4uzu8pco5_to__to 8000ms linear infinite normal forwards}@keyframes eigk4uzu8pco5_to__to { 0% {transform: translate(563.722000px,630.842006px)} 56% {transform: translate(563.722000px,630.842006px);animation-timing-function: cubic-bezier(0.335000,0.725000,0.385000,0.780000)} 63.500000% {transform: translate(561.286741px,536.757396px);animation-timing-function: cubic-bezier(0.335000,0.725000,0.385000,0.780000)} 72.250000% {transform: translate(561.286741px,434.776749px);animation-timing-function: cubic-bezier(0.335000,0.725000,0.385000,0.780000)} 82.250000% {transform: translate(561.316012px,384px);animation-timing-function: cubic-bezier(0.335000,0.725000,0.385000,0.780000)} 88.500000% {transform: translate(561.286741px,320.321956px);animation-timing-function: cubic-bezier(0.335000,0.725000,0.385000,0.780000)} 99.750000% {transform: translate(561.286741px,313.028712px)} 100% {transform: translate(561.286741px,313.028712px)} }#eigk4uzu8pco5_ts {animation: eigk4uzu8pco5_ts__ts 8000ms linear infinite normal forwards}@keyframes eigk4uzu8pco5_ts__ts { 0% {transform: scale(0.502867,0.506363)} 56% {transform: scale(0.502867,0.506363);animation-timing-function: cubic-bezier(0.335000,0.725000,0.385000,0.780000)} 63.500000% {transform: scale(0.961257,0.967940);animation-timing-function: cubic-bezier(0.335000,0.725000,0.385000,0.780000)} 72.250000% {transform: scale(0.489503,0.492906);animation-timing-function: cubic-bezier(0.335000,0.725000,0.385000,0.780000)} 82.250000% {transform: scale(1.066999,1.074418);animation-timing-function: cubic-bezier(0.335000,0.725000,0.385000,0.780000)} 93.500000% {transform: scale(0.552626,0.556468)} 100% {transform: scale(0.552626,0.556468)} }#eigk4uzu8pco5 {animation: eigk4uzu8pco5_f_p 8000ms linear infinite normal forwards}@keyframes eigk4uzu8pco5_f_p { 0% {fill: rgb(245,151,185)} 56% {fill: rgb(245,151,185);animation-timing-function: cubic-bezier(0.335000,0.725000,0.385000,0.780000)} 56.250000% {fill: rgb(255,214,64)} 63.750000% {fill: rgb(252,249,122)} 72.250000% {fill: rgb(255,214,64);animation-timing-function: cubic-bezier(0.335000,0.725000,0.385000,0.780000)} 82.500000% {fill: rgb(165,74,255)} 100% {fill: rgb(165,74,255)} }#eigk4uzu8pco8_to {animation: eigk4uzu8pco8_to__to 8000ms linear infinite normal forwards}@keyframes eigk4uzu8pco8_to__to { 0% {transform: translate(362.773647px,428.834936px)} 12.500000% {transform: translate(362.773626px,444.935878px)} 25% {transform: translate(362.773647px,428.834936px)} 37.500000% {transform: translate(362.773626px,444.935878px)} 50% {transform: translate(362.773647px,428.834936px)} 62.500000% {transform: translate(362.773626px,444.935878px)} 75% {transform: translate(362.773647px,428.834936px)} 87.500000% {transform: translate(362.773626px,444.935878px)} 100% {transform: translate(362.773647px,428.834936px)} }#eigk4uzu8pco18_to {animation: eigk4uzu8pco18_to__to 8000ms linear infinite normal forwards}@keyframes eigk4uzu8pco18_to__to { 0% {offset-distance: 0%} 12.375000% {offset-distance: 0%} 24.500000% {offset-distance: 20%} 37% {offset-distance: 40%} 55.750000% {offset-distance: 60%} 62% {offset-distance: 80%} 80.750000% {offset-distance: 100%} 100% {offset-distance: 100%} }#eigk4uzu8pco19_to {animation: eigk4uzu8pco19_to__to 8000ms linear infinite normal forwards}@keyframes eigk4uzu8pco19_to__to { 0% {offset-distance: 0%} 12.500000% {offset-distance: 20%} 25% {offset-distance: 40%} 43.750000% {offset-distance: 60%} 50% {offset-distance: 80%} 62.500000% {offset-distance: 100%} 100% {offset-distance: 100%} }#eigk4uzu8pco20_to {animation: eigk4uzu8pco20_to__to 8000ms linear infinite normal forwards}@keyframes eigk4uzu8pco20_to__to { 0% {offset-distance: 0%} 24.500000% {offset-distance: 0%} 37% {offset-distance: 20%} 49.500000% {offset-distance: 40%} 68.250000% {offset-distance: 60%} 74.500000% {offset-distance: 80%} 99.875000% {offset-distance: 100%} 100% {offset-distance: 100%} }#eigk4uzu8pco22_to {animation: eigk4uzu8pco22_to__to 8000ms linear infinite normal forwards}@keyframes eigk4uzu8pco22_to__to { 0% {transform: translate(230.024491px,492.970682px);animation-timing-function: cubic-bezier(0.705000,0,0.380000,1.015000)} 12.500000% {transform: translate(169.029371px,455.340877px);animation-timing-function: cubic-bezier(0.705000,0,0.380000,1.015000)} 25% {transform: translate(230.024491px,492.970682px);animation-timing-function: cubic-bezier(0.705000,0,0.380000,1.015000)} 37.500000% {transform: translate(169.029371px,455.340877px);animation-timing-function: cubic-bezier(0.705000,0,0.380000,1.015000)} 50% {transform: translate(230.024491px,492.970682px);animation-timing-function: cubic-bezier(0.705000,0,0.380000,1.015000)} 62.500000% {transform: translate(169.029371px,455.340877px);animation-timing-function: cubic-bezier(0.705000,0,0.380000,1.015000)} 75% {transform: translate(230.024491px,492.970682px);animation-timing-function: cubic-bezier(0.705000,0,0.380000,1.015000)} 87.500000% {transform: translate(169.029371px,455.340877px);animation-timing-function: cubic-bezier(0.705000,0,0.380000,1.015000)} 100% {transform: translate(230.024491px,492.970682px)} }#eigk4uzu8pco22_ts {animation: eigk4uzu8pco22_ts__ts 8000ms linear infinite normal forwards}@keyframes eigk4uzu8pco22_ts__ts { 0% {transform: rotate(-1.069392deg) scale(0.611988,0.617425);animation-timing-function: cubic-bezier(0.705000,0,0.380000,1.015000)} 12.500000% {transform: rotate(-1.069392deg) scale(1.699842,1.645983);animation-timing-function: cubic-bezier(0.705000,0,0.380000,1.015000)} 25% {transform: rotate(-1.069392deg) scale(0.611988,0.617425);animation-timing-function: cubic-bezier(0.705000,0,0.380000,1.015000)} 37.500000% {transform: rotate(-1.069392deg) scale(1.699842,1.645983);animation-timing-function: cubic-bezier(0.705000,0,0.380000,1.015000)} 50% {transform: rotate(-1.069392deg) scale(0.611988,0.617425);animation-timing-function: cubic-bezier(0.705000,0,0.380000,1.015000)} 62.500000% {transform: rotate(-1.069392deg) scale(1.699842,1.645983);animation-timing-function: cubic-bezier(0.705000,0,0.380000,1.015000)} 75% {transform: rotate(-1.069392deg) scale(0.611988,0.617425);animation-timing-function: cubic-bezier(0.705000,0,0.380000,1.015000)} 87.500000% {transform: rotate(-1.069392deg) scale(1.699842,1.645983);animation-timing-function: cubic-bezier(0.705000,0,0.380000,1.015000)} 100% {transform: rotate(-1.069392deg) scale(0.611988,0.617425)} }]]></style><rect id="eigk4uzu8pco2" display="none" width="46" height="46" rx="0" ry="0" transform="matrix(18.20273059300363 0 0 21.94604874223653 -73.29760022908386 -103.14413815144019)" fill="rgb(84,131,204)" stroke="none" stroke-width="1"/><path id="eigk4uzu8pco3" d="M456.810000,698.310000L139.130000,698.310000C115.534685,698.404083,96.329208,679.355294,96.230000,655.760000L96.230000,147.470000C96.274993,136.138184,100.820423,125.288523,108.866043,117.308543C116.911663,109.328563,127.798196,104.872164,139.130000,104.920000L511,106.130000" opacity="0" fill="none" stroke="rgb(97,97,97)" stroke-width="1" stroke-miterlimit="10"/><line id="eigk4uzu8pco4" x1="558.730000" y1="336.420000" x2="558.730000" y2="607.760000" transform="matrix(-1.01359618223135 0 0 1.18400370499984 1127.61333568013333 -97.26487887113296)" opacity="0" fill="none" stroke="rgb(97,97,97)" stroke-width="1" stroke-miterlimit="10"/><g id="eigk4uzu8pco5_to" transform="translate(563.722000,630.842006)"><g id="eigk4uzu8pco5_ts" transform="scale(0.502867,0.506363)"><circle id="eigk4uzu8pco5" r="27" transform="translate(-0.865555,0)" fill="rgb(245,151,185)" stroke="none" stroke-width="1"/></g></g><circle id="eigk4uzu8pco6" display="none" r="17" transform="matrix(1 0 0 1 558.73000000000002 451.42000000000002)" fill="rgb(0,220,220)" stroke="none" stroke-width="1"/><ellipse id="eigk4uzu8pco7" display="none" rx="14" ry="13.500000" transform="matrix(1 0 0 1 559.73000000000002 392.92000000000002)" fill="rgb(47,65,148)" stroke="none" stroke-width="1"/><g id="eigk4uzu8pco8_to" transform="translate(362.773647,428.834936)"><g id="eigk4uzu8pco8" transform="translate(-361.372487,-436.730001)"><path id="eigk4uzu8pco9" d="M377.180000,249.420000L377.180000,249.420000C400.638399,249.420000,423.136002,258.738813,439.723595,275.326405C456.311187,291.913998,465.630000,314.411601,465.630000,337.870000L465.630000,556.400000C465.630000,579.858397,456.311188,602.356001,439.723596,618.943594C423.136003,635.531187,400.638400,644.850000,377.180000,644.850000L377.180000,644.850000C353.721601,644.850000,331.223998,635.531187,314.636405,618.943595C298.048813,602.356002,288.730000,579.858399,288.730000,556.400000L288.730000,337.870000C288.730000,314.411603,298.048812,291.913999,314.636404,275.326406C331.223997,258.738813,353.721600,249.420000,377.180000,249.420000Z" fill="rgb(255,214,64)" stroke="none" stroke-width="1"/><rect id="eigk4uzu8pco10" width="83.250000" height="156.090000" rx="41.620000" ry="41.620000" transform="matrix(0.76604400000000 -0.64278800000000 0.64278800000000 0.76604400000000 230.02449128000006 519.72673264000002)" fill="rgb(252,249,122)" stroke="none" stroke-width="1"/><path id="eigk4uzu8pco11" d="M644.640000,249.420000C662.100000,249.420000,673.150000,268.280000,664.480000,283.420000C653.180000,303.180000,613.770000,325.550000,585.400000,332.650000C418.900000,374.270000,321.230000,249.400000,377.270000,249.400000Z" fill="rgb(165,74,255)" stroke="none" stroke-width="1"/><path id="eigk4uzu8pco12" d="M293.240000,249.420000L372,249.420000C423.726990,249.420000,465.660000,291.353010,465.660000,343.080000L465.660000,343.080000C465.660000,367.919258,455.791959,391.741017,438.227014,409.304086C420.662069,426.867155,396.839256,436.732652,372,436.730000L293.240000,436.730000C241.518533,436.730000,199.590000,394.801467,199.590000,343.080000L199.590000,343.080000C199.587348,318.240743,209.452845,294.417930,227.015914,276.852985C244.578983,259.288041,268.400743,249.420000,293.240000,249.420000Z" fill="rgb(255,214,64)" stroke="none" stroke-width="1"/><path id="eigk4uzu8pco13" d="M383.260000,249.420000L377.260000,249.420000C336.580000,249.420000,376.860000,315.200000,465.690000,335.360000C463.070000,288.440000,430,252.130000,383.260000,249.420000Z" fill="rgb(252,249,122)" stroke="none" stroke-width="1"/><path id="eigk4uzu8pco14" d="M320.720000,498.100000L367.540000,553.900000C381.788965,570.683305,380.502328,595.660437,364.604256,610.890789C348.706185,626.121142,323.696855,626.335547,307.540000,611.380000C295.300194,595.823371,288.662728,576.594448,288.700000,556.800000L288.700000,483.230000L288.780000,483.230000C301.106105,483.199888,312.808387,488.648008,320.720000,498.100000Z" fill="rgb(165,74,255)" stroke="none" stroke-width="1"/></g></g><path id="eigk4uzu8pco15" display="none" d="M48.890000,415.380000L48.890000,415.380000C43.277758,386.498664,62.124267,358.530999,91,352.890000L91,352.890000C102.566691,350.629960,114.557387,353.060227,124.331301,359.645569C134.105215,366.230910,140.860717,376.431213,143.110000,388L152.430000,436C152.656009,437.156404,152.413090,438.355222,151.754742,439.332427C151.096395,440.309632,150.076616,440.985076,148.920000,441.210000L148.920000,441.210000L101,450.500000C76.920742,455.181621,53.604867,439.458627,48.920000,415.380000Z" fill="rgb(255,214,64)" stroke="none" stroke-width="1"/><path id="eigk4uzu8pco16" d="M285.890000,238.910000C278.524669,238.918946,271.169586,238.360628,263.890000,237.240000C256.946058,236.168088,250.095570,234.559945,243.400000,232.430000C237.022678,230.403543,230.821966,227.858375,224.860000,224.820000C219.190155,221.940702,213.782901,218.571206,208.700000,214.750000C203.872695,211.120136,199.408499,207.031026,195.370000,202.540000C191.512506,198.254788,188.135725,193.560157,185.300000,188.540000C182.557526,183.658248,180.421705,178.459742,178.940000,173.060000C177.471216,167.638778,176.728067,162.046669,176.730000,156.430000L395.060000,156.430000C395.061933,162.046669,394.318784,167.638778,392.850000,173.060000C391.368295,178.459742,389.232474,183.658248,386.490000,188.540000C383.656858,193.561807,380.279880,198.256711,376.420000,202.540000C372.384107,207.033607,367.919648,211.122957,363.090000,214.750000C358.007099,218.571206,352.599845,221.940702,346.930000,224.820000C340.966107,227.854177,334.765744,230.399202,328.390000,232.430000C321.695478,234.561356,314.844618,236.166242,307.900000,237.230000C300.617924,238.359257,293.259107,238.920948,285.890000,238.910000Z" transform="matrix(1 0 0 1 -0.00002088000008 -8.67538900000000)" fill="rgb(255,214,64)" stroke="none" stroke-width="1"/><path id="eigk4uzu8pco17" d="M560,607.760000C565.209287,607.752785,570.411375,608.147288,575.560000,608.940000C580.474085,609.696140,585.322004,610.832893,590.060000,612.340000C594.570049,613.779920,598.957431,615.579014,603.180000,617.720000C607.190584,619.758888,611.015157,622.144645,614.610000,624.850000C618.025645,627.414190,621.183842,630.304459,624.040000,633.480000C626.767787,636.513670,629.155337,639.836790,631.160000,643.390000C633.101480,646.860154,634.612629,650.554074,635.660000,654.390000C636.697842,658.223750,637.222419,662.178257,637.220000,666.150000L482.730000,666.150000C482.727581,662.178257,483.252158,658.223750,484.290000,654.390000C485.337371,650.554074,486.848520,646.860154,488.790000,643.390000C490.801498,639.841160,493.188535,636.518753,495.910000,633.480000C498.768785,630.307064,501.926717,627.417037,505.340000,624.850000C508.934843,622.144645,512.759416,619.758888,516.770000,617.720000C520.992569,615.579014,525.379951,613.779920,529.890000,612.340000C534.628306,610.834017,539.476137,609.697284,544.390000,608.940000C549.555120,608.144721,554.774023,607.750210,560,607.760000Z" transform="matrix(1 0 0 1 1.34101188000000 6.80175776999999)" fill="rgb(165,74,255)" stroke="none" stroke-width="1"/><g id="eigk4uzu8pco18_to" style="offset-path:path('M431.932403,104.625000Q184.580694,104.716769,145.879307,104.919619Q95.177273,105.670868,96.230000,155.168819Q95.458413,608.010614,96.511140,657.508565C97.026543,678.164537,114.743789,702.288417,152.309141,698.310347Q372.292758,698.663921,414.932403,698.310347');offset-rotate:0deg"><circle id="eigk4uzu8pco18" r="17" transform="translate(0,-0)" fill="rgb(255,214,64)" stroke="none" stroke-width="1"/></g><g id="eigk4uzu8pco19_to" style="offset-path:path('M431.932403,104.625000Q264.050579,104.100724,145.879307,104.919619Q95.177273,105.670868,96.230000,155.168819Q97.026543,678.164537,96.511140,657.508565C97.026543,678.164537,114.743789,702.288417,152.309141,698.310347Q372.292758,698.663921,414.932403,698.310347');offset-rotate:0deg"><circle id="eigk4uzu8pco19" r="17" transform="translate(-0,-0)" fill="rgb(165,74,255)" stroke="none" stroke-width="1"/></g><g id="eigk4uzu8pco20_to" style="offset-path:path('M431.932403,104.625000Q184.580694,104.716769,145.879307,104.919619Q95.177273,105.670868,96.230000,155.168819Q95.458413,608.010614,96.511140,657.508565C97.026543,678.164537,114.743789,702.288417,152.309141,698.310347Q372.292758,698.663921,414.932403,698.310347');offset-rotate:0deg"><circle id="eigk4uzu8pco20" r="17" transform="translate(0,0.294619)" fill="rgb(252,249,122)" stroke="none" stroke-width="1"/></g><path id="eigk4uzu8pco21" display="none" d="M230.690000,480.170000L230.400000,478.660000C229.953914,476.380270,230.432655,474.016721,231.730712,472.090270C233.028768,470.163820,235.039590,468.832597,237.320000,468.390000L237.320000,468.390000L238.840000,468.090000C243.583266,467.166407,248.178552,470.258270,249.110000,475L249.110000,475C249.641885,477.680298,249.085832,480.462087,247.564456,482.731958C246.043080,485.001828,243.681332,486.573355,241,487.100000L241,487.100000C238.719119,487.543089,236.355643,487.061865,234.429601,485.762208C232.503558,484.462552,231.172754,482.450946,230.730000,480.170000Z" fill="rgb(255,214,64)" stroke="none" stroke-width="1"/><g id="eigk4uzu8pco22_to" transform="translate(230.024491,492.970682)"><g id="eigk4uzu8pco22_ts" transform="rotate(-1.069392) scale(0.611988,0.617425)"><path id="eigk4uzu8pco22" d="M171.210000,464.230000L170,457.840000C168.209227,448.625412,174.225913,439.703348,183.440000,437.910000L189.840000,436.670000C199.054588,434.879227,207.976652,440.895913,209.770000,450.110000L213.110000,467.300000C213.720692,470.542471,211.598701,473.669617,208.360000,474.300000L191.170000,477.640000C186.744766,478.509516,182.155372,477.585029,178.411918,475.070013C174.668463,472.554997,172.077758,468.655579,171.210000,464.230000Z" transform="translate(-191.449670,-457.156822)" fill="rgb(252,249,122)" stroke="none" stroke-width="1"/></g></g><path id="eigk4uzu8pco23" d="M385.700000,739.390000C392.241681,739.389226,398.773837,738.891124,405.240000,737.900000C411.408041,736.949874,417.492996,735.522250,423.440000,733.630000C429.103003,731.823645,434.610901,729.562966,439.910000,726.870000C444.951906,724.297927,449.757183,721.286263,454.270000,717.870000C458.558686,714.648968,462.524010,711.018553,466.110000,707.030000C469.535289,703.218586,472.533138,699.043730,475.050000,694.580000C477.492138,690.246708,479.389831,685.628429,480.700000,680.830000C482.018532,676.017108,482.691095,671.050228,482.700000,666.060000L288.730000,666.060000C288.738905,671.050228,289.411468,676.017108,290.730000,680.830000C292.040169,685.628429,293.937862,690.246708,296.380000,694.580000C298.893456,699.045903,301.891564,703.221119,305.320000,707.030000C308.905990,711.018553,312.871314,714.648968,317.160000,717.870000C321.670837,721.284018,326.472591,724.295571,331.510000,726.870000C336.817133,729.560493,342.331473,731.821072,348,733.630000C353.947314,735.521126,360.032181,736.948730,366.200000,737.900000C372.653065,738.888227,379.171706,739.386318,385.700000,739.390000Z" transform="matrix(1 0 0 1 1.37100355000001 6.89175777000003)" fill="rgb(165,74,255)" stroke="none" stroke-width="1"/><path id="eigk4uzu8pco24" d="M531.810000,52.830000C522.563427,52.829251,513.330169,53.531273,504.190000,54.930000C495.468884,56.267238,486.863514,58.273151,478.450000,60.930000C470.446383,63.483687,462.661254,66.677328,455.170000,70.480000C448.051125,74.097640,441.261972,78.330404,434.880000,83.130000C428.816488,87.700413,423.210273,92.847816,418.140000,98.500000C413.295893,103.886914,409.057218,109.788866,405.500000,116.100000C402.048405,122.228474,399.361671,128.757237,397.500000,135.540000C395.652808,142.346187,394.717964,149.367603,394.720000,156.420000L668.900000,156.420000C668.897099,149.367931,667.962342,142.347163,666.120000,135.540000C664.258329,128.757237,661.571595,122.228474,658.120000,116.100000C654.559404,109.791023,650.320984,103.889426,645.480000,98.500000C640.405594,92.863934,634.799664,87.730188,628.740000,83.170000C622.355020,78.374791,615.566260,74.142271,608.450000,70.520000C600.962973,66.723851,593.180883,63.540116,585.180000,61C576.766486,58.343151,568.161116,56.337238,559.440000,55C550.298308,53.577447,541.061686,52.852023,531.810000,52.830000Z" transform="matrix(1 0 0 1 -0.00002088000008 -8.67538900000000)" fill="rgb(165,74,255)" stroke="none" stroke-width="1"/></svg>