<svg xmlns="http://www.w3.org/2000/svg" width="250" height="44" viewBox="0 0 250 44">
  <g id="Group_1030" data-name="Group 1030" transform="translate(-360 -28)">
    <g id="Group_4" data-name="Group 4" transform="translate(360 28)">
      <g id="Group_1" data-name="Group 1">
        <path id="Path_1" data-name="Path 1" d="M617.6,57.041c-1.826,0-3.079-.091-3.285-.108a1.385,1.385,0,0,1,.217-2.762c5.37.415,19.453-.038,20.121-7.062.892-9.366-4.73-10.532-5.866-10.67l-35.978,0a.506.506,0,0,0-.463.29.458.458,0,0,0,.043.507,14.3,14.3,0,0,0,7.228,5.056,16.707,16.707,0,0,0,7.833.336,33,33,0,0,0,6.844-2.463l.67-.3a1.385,1.385,0,1,1,1.121,2.533l-.666.3a34.992,34.992,0,0,1-7.436,2.65,19.563,19.563,0,0,1-9.154-.4,17.045,17.045,0,0,1-8.624-6.007,3.276,3.276,0,0,1,2.6-5.273h35.923a3.1,3.1,0,0,1,.391.023c.969.119,9.448,1.508,8.289,13.684C636.591,55.989,623.8,57.041,617.6,57.041Z" transform="translate(-589.522 -33.667)" fill="#cdcdcd"/>
      </g>
      <g id="Group_2" data-name="Group 2" transform="translate(18.53 8.976)">
        <path id="Path_2" data-name="Path 2" d="M623.282,77.155H609.344a3.006,3.006,0,0,1-2.961-3.043V43.555a1.386,1.386,0,1,1,2.771,0V74.112a.193.193,0,0,0,.19.2h13.938a4.034,4.034,0,0,0,2.684-1.068,6.147,6.147,0,0,0,.819-1.845c.115-.347.229-.686.351-.993l3.054-7.7a1.362,1.362,0,0,0-.949-1.125c-4-1.123-6.685.164-7.981,3.824a1.374,1.374,0,0,1-1.775.851,1.434,1.434,0,0,1-.829-1.824c1.795-5.071,5.918-7.112,11.313-5.6a4.23,4.23,0,0,1,3.01,4.106v.279L629.7,71.475c-.1.26-.2.546-.3.841a8.188,8.188,0,0,1-1.356,2.8A6.689,6.689,0,0,1,623.282,77.155Z" transform="translate(-606.383 -42.131)" fill="#cdcdcd"/>
      </g>
      <g id="Group_3" data-name="Group 3" transform="translate(37.368 6.095)">
        <path id="Path_3" data-name="Path 3" d="M624.91,45.862a1.386,1.386,0,0,1-1.386-1.386V40.6a1.385,1.385,0,0,1,2.771,0v3.878A1.385,1.385,0,0,1,624.91,45.862Z" transform="translate(-623.524 -39.213)" fill="#cdcdcd"/>
      </g>
    </g>
    <g id="Component_6_1" data-name="Component 6 – 1" transform="translate(420.212 41.961)">
      <path id="Path_4" data-name="Path 4" d="M655.3,61.932a1.446,1.446,0,0,0-.934.469,4.663,4.663,0,0,1-1.489,1,4.8,4.8,0,0,1-6.239-2.565,4.625,4.625,0,0,1-.371-1.848V54.034h6.02a1.593,1.593,0,0,0,1.137-.419,1.448,1.448,0,0,0,0-2.1,1.59,1.59,0,0,0-1.136-.419h-6.02V47.837a1.446,1.446,0,0,0-.429-1.043,1.5,1.5,0,0,0-2.084,0,1.442,1.442,0,0,0-.43,1.044V58.985a7.544,7.544,0,0,0,.61,3.011,7.7,7.7,0,0,0,4.092,4.093,7.558,7.558,0,0,0,3.013.61,7.679,7.679,0,0,0,3.072-.624,7.508,7.508,0,0,0,2.566-1.832,1.53,1.53,0,0,0,.225-1.069,1.656,1.656,0,0,0-.517-.946A1.528,1.528,0,0,0,655.3,61.932Z" transform="translate(-643.326 -46.373)" fill="#cdcdcd"/>
      <path id="Path_5" data-name="Path 5" d="M670.874,53.077a8.109,8.109,0,0,0-2.439-1.674,7.146,7.146,0,0,0-2.944-.629h-.022a8.418,8.418,0,0,0-3.068.685,7.992,7.992,0,0,0-2.456,1.661,7.621,7.621,0,0,0-2.228,5.428,7.726,7.726,0,0,0,.609,3.073,7.536,7.536,0,0,0,1.668,2.434,7.732,7.732,0,0,0,5.437,2.177,7.639,7.639,0,0,0,5.491-2.275,8.121,8.121,0,0,0,1.644-2.44,7.556,7.556,0,0,0-.016-5.986A8.086,8.086,0,0,0,670.874,53.077Zm-.642,5.472a4.643,4.643,0,0,1-.37,1.848,4.8,4.8,0,0,1-8.831,0,4.644,4.644,0,0,1-.37-1.848,4.766,4.766,0,0,1,.371-1.867,4.789,4.789,0,0,1,2.552-2.564,4.642,4.642,0,0,1,1.847-.371,4.756,4.756,0,0,1,1.867.374,4.747,4.747,0,0,1,2.563,2.562A4.767,4.767,0,0,1,670.232,58.549Z" transform="translate(-641.901 -45.937)" fill="#cdcdcd"/>
      <path id="Path_6" data-name="Path 6" d="M685.549,54.617h-9.157a1.471,1.471,0,1,0,0,2.942h9.157a1.471,1.471,0,1,0,0-2.942Z" transform="translate(-640.198 -45.557)" fill="#cdcdcd"/>
      <path id="Path_7" data-name="Path 7" d="M701.18,61.932a1.443,1.443,0,0,0-.933.469,4.656,4.656,0,0,1-1.49,1,4.8,4.8,0,0,1-6.238-2.565,4.625,4.625,0,0,1-.371-1.848V54.034h6.02a1.6,1.6,0,0,0,1.137-.419,1.448,1.448,0,0,0,0-2.106,1.6,1.6,0,0,0-1.135-.418h-6.02V47.837a1.446,1.446,0,0,0-.429-1.043,1.5,1.5,0,0,0-2.086,0,1.45,1.45,0,0,0-.427,1.043V58.985a7.554,7.554,0,0,0,.61,3.012,7.7,7.7,0,0,0,4.092,4.092,7.557,7.557,0,0,0,3.012.61,7.679,7.679,0,0,0,3.074-.625,7.488,7.488,0,0,0,2.563-1.83,1.512,1.512,0,0,0,.227-1.068,1.64,1.64,0,0,0-.518-.95A1.488,1.488,0,0,0,701.18,61.932Z" transform="translate(-638.784 -46.373)" fill="#cdcdcd"/>
      <path id="Path_8" data-name="Path 8" d="M717.023,51.149a1.443,1.443,0,0,0-.427,1.043v6.362a4.644,4.644,0,0,1-.371,1.848,4.837,4.837,0,0,1-2.552,2.553,4.753,4.753,0,0,1-5.22-1.03,4.875,4.875,0,0,1-1.03-1.523,4.625,4.625,0,0,1-.371-1.848V52.192a1.443,1.443,0,0,0-.428-1.042,1.5,1.5,0,0,0-2.086,0,1.444,1.444,0,0,0-.429,1.043v6.362a7.553,7.553,0,0,0,.61,3.012,7.707,7.707,0,0,0,4.093,4.092,7.744,7.744,0,0,0,6.025,0,7.7,7.7,0,0,0,4.092-4.092,7.547,7.547,0,0,0,.61-3.012V52.192a1.442,1.442,0,0,0-.428-1.042A1.5,1.5,0,0,0,717.023,51.149Z" transform="translate(-637.309 -45.942)" fill="#cdcdcd"/>
      <path id="Path_9" data-name="Path 9" d="M743.456,46.848a1.442,1.442,0,0,0-.43,1.043v5.292a10.951,10.951,0,0,0-1.523-1.056,7,7,0,0,0-3.288-.92H738.2a7.148,7.148,0,0,0-2.945.629,8.038,8.038,0,0,0-4.112,4.129,7.556,7.556,0,0,0-.016,5.986,8.045,8.045,0,0,0,1.643,2.44,7.644,7.644,0,0,0,5.491,2.275,7.821,7.821,0,0,0,2.973-.576,7.7,7.7,0,0,0,2.463-1.6,7.489,7.489,0,0,0,1.668-2.436,7.7,7.7,0,0,0,.61-3.072V47.891a1.449,1.449,0,0,0-.429-1.044A1.5,1.5,0,0,0,743.456,46.848Zm-.43,12.145a4.659,4.659,0,0,1-.37,1.835,4.8,4.8,0,0,1-8.832,0,4.645,4.645,0,0,1-.371-1.848,4.766,4.766,0,0,1,.373-1.867,4.747,4.747,0,0,1,2.563-2.562,4.756,4.756,0,0,1,1.867-.374,4.64,4.64,0,0,1,3.3,1.356,4.952,4.952,0,0,1,1.029,1.528A5.506,5.506,0,0,1,743.026,58.993Z" transform="translate(-634.695 -46.368)" fill="#cdcdcd"/>
      <path id="Path_10" data-name="Path 10" d="M760.752,53.011a8.331,8.331,0,0,0-2.4-1.623,7.117,7.117,0,0,0-2.933-.612h0a8.4,8.4,0,0,0-3.067.685,7.938,7.938,0,0,0-2.458,1.661,7.825,7.825,0,0,0-1.617,8.5,7.483,7.483,0,0,0,1.667,2.435,7.728,7.728,0,0,0,5.437,2.177,8.666,8.666,0,0,0,3.031-.5,6.079,6.079,0,0,0,2.411-1.687,1.483,1.483,0,0,0,0-2.085,1.509,1.509,0,0,0-2.079-.008,5.007,5.007,0,0,1-1.525,1,4.817,4.817,0,0,1-6-2.06,4.388,4.388,0,0,1-.411-.943h10.847a1.547,1.547,0,0,0,1.025-.4,1.323,1.323,0,0,0,.446-1.213,7.853,7.853,0,0,0-2.368-5.337Zm-3.719,1.04a5.17,5.17,0,0,1,1.425.833,4.776,4.776,0,0,1,1.052,1.24,4.675,4.675,0,0,1,.413.895h-9.069a4.909,4.909,0,0,1,.4-.9,4.515,4.515,0,0,1,1.034-1.234,5.168,5.168,0,0,1,1.424-.833A4.694,4.694,0,0,1,757.033,54.051Z" transform="translate(-632.998 -45.937)" fill="#cdcdcd"/>
      <path id="Path_11" data-name="Path 11" d="M775.967,58.579a4.556,4.556,0,0,0-1.434-.964,4.423,4.423,0,0,0-1.748-.357h-3.478a1.762,1.762,0,0,1-1.246-3.016,1.786,1.786,0,0,1,1.246-.553h6.064a1.47,1.47,0,1,0,0-2.941h-6.064a4.608,4.608,0,0,0-1.839.371,4.767,4.767,0,0,0-1.492,1.008,4.772,4.772,0,0,0-1.38,3.362,4.579,4.579,0,0,0,.373,1.836,4.715,4.715,0,0,0,2.5,2.5,4.6,4.6,0,0,0,1.839.373h3.478a1.561,1.561,0,0,1,0,3.122h-6.421a1.471,1.471,0,1,0,0,2.942h6.421a4.4,4.4,0,0,0,1.748-.357,4.476,4.476,0,0,0,2.4-2.4,4.45,4.45,0,0,0,0-3.494A4.548,4.548,0,0,0,775.967,58.579Z" transform="translate(-631.322 -45.94)" fill="#cdcdcd"/>
      <path id="Path_12" data-name="Path 12" d="M779.63,51.177a1.447,1.447,0,0,0-.427,1.042V64.795a1.471,1.471,0,1,0,2.942,0V52.219a1.448,1.448,0,0,0-.429-1.043A1.5,1.5,0,0,0,779.63,51.177Z" transform="translate(-629.875 -45.939)" fill="#cdcdcd"/>
      <path id="Path_13" data-name="Path 13" d="M779.45,47.234a1.739,1.739,0,0,0-.517,1.252,1.765,1.765,0,0,0,1.767,1.768,1.769,1.769,0,0,0,1.252-3.019A1.787,1.787,0,0,0,779.45,47.234Z" transform="translate(-629.902 -46.338)" fill="#cdcdcd"/>
      <path id="Path_14" data-name="Path 14" d="M800.315,58.522a7.408,7.408,0,0,0-.628-3.018,8.038,8.038,0,0,0-4.114-4.128,7.152,7.152,0,0,0-2.962-.628h0a8.4,8.4,0,0,0-3.068.685,7.978,7.978,0,0,0-2.457,1.661,7.823,7.823,0,0,0-1.617,8.5,7.5,7.5,0,0,0,1.667,2.436,7.734,7.734,0,0,0,2.446,1.6,8.022,8.022,0,0,0,5.619.127,8.234,8.234,0,0,0,1.8-.928,2.372,2.372,0,0,1,.223.425,2.52,2.52,0,0,1-.012,1.912,2.48,2.48,0,0,1-.535.807,2.538,2.538,0,0,1-.807.536,2.468,2.468,0,0,1-.976.195h-3.925a3.873,3.873,0,0,0-2.175.642,4.033,4.033,0,0,0-1.445,1.642,1.5,1.5,0,0,0-.073,1.066,1.437,1.437,0,0,0,.746.888,1.55,1.55,0,0,0,1.1.044,1.46,1.46,0,0,0,.828-.679,1.421,1.421,0,0,1,.5-.47,1.463,1.463,0,0,1,.547-.22h3.9a5.324,5.324,0,0,0,2.122-.431,5.38,5.38,0,0,0,1.719-1.176,5.771,5.771,0,0,0,1.152-1.709,5.349,5.349,0,0,0,0-4.219,5.649,5.649,0,0,0-.836-1.351,7.53,7.53,0,0,0,1.27-4.209Zm-2.943,0A4.624,4.624,0,0,1,797,60.371a4.8,4.8,0,0,1-8.83,0,4.615,4.615,0,0,1-.372-1.847,4.752,4.752,0,0,1,.373-1.867,4.788,4.788,0,0,1,2.55-2.563,4.642,4.642,0,0,1,1.85-.371,4.726,4.726,0,0,1,1.866.373A4.734,4.734,0,0,1,797,56.656,4.743,4.743,0,0,1,797.372,58.522Z" transform="translate(-629.316 -45.94)" fill="#cdcdcd"/>
      <path id="Path_15" data-name="Path 15" d="M816.8,55.423a7.715,7.715,0,0,0-14.209,0,7.55,7.55,0,0,0-.61,3.012V64.8a1.445,1.445,0,0,0,.427,1.042,1.505,1.505,0,0,0,2.087,0,1.445,1.445,0,0,0,.427-1.042V58.436a4.644,4.644,0,0,1,.371-1.849,4.835,4.835,0,0,1,2.553-2.553,4.816,4.816,0,0,1,3.7,0,4.827,4.827,0,0,1,2.552,2.553,4.624,4.624,0,0,1,.371,1.849V64.8a1.472,1.472,0,1,0,2.943,0V58.436A7.548,7.548,0,0,0,816.8,55.423Z" transform="translate(-627.621 -45.942)" fill="#cdcdcd"/>
    </g>
  </g>
</svg>
