<svg xmlns="http://www.w3.org/2000/svg" width="48.96" height="48.96" viewBox="0 0 48.96 48.96">
  <g id="Group_1064" data-name="Group 1064" transform="translate(-6.117 -6.04)">
    <path id="Rectangle_1258" data-name="Rectangle 1258" d="M22.254,0h0A26.705,26.705,0,0,1,48.96,26.705v0A22.254,22.254,0,0,1,26.705,48.96H2.225A2.225,2.225,0,0,1,0,46.734V22.254A22.254,22.254,0,0,1,22.254,0Z" transform="translate(6.117 55) rotate(-90)" fill="#ffd640"/>
    <g id="Group_1063" data-name="Group 1063" transform="matrix(0.999, 0.035, -0.035, 0.999, 19.629, 22.57)">
      <g id="Group_1" data-name="Group 1">
        <path id="Path_1" data-name="Path 1" d="M605.075,46.615c-1.012,0-1.706-.051-1.82-.06a.767.767,0,1,1,.12-1.53c2.974.23,10.776-.021,11.146-3.912.494-5.188-2.62-5.834-3.25-5.91H591.343a.28.28,0,0,0-.256.161.254.254,0,0,0,.024.281,7.918,7.918,0,0,0,4,2.8,9.255,9.255,0,0,0,4.339.186,18.282,18.282,0,0,0,3.791-1.364l.371-.165a.767.767,0,1,1,.621,1.4l-.369.164a19.382,19.382,0,0,1-4.119,1.468,10.837,10.837,0,0,1-5.07-.22,9.442,9.442,0,0,1-4.777-3.327,1.815,1.815,0,0,1,1.441-2.921h19.9a1.72,1.72,0,0,1,.217.013c.537.066,5.233.835,4.591,7.58C615.595,46.031,608.509,46.615,605.075,46.615Z" transform="translate(-589.522 -33.667)" fill="#333"/>
      </g>
      <g id="Group_2" data-name="Group 2" transform="translate(10.264 4.972)">
        <path id="Path_2" data-name="Path 2" d="M615.744,61.531h-7.721a1.665,1.665,0,0,1-1.64-1.686V42.92a.768.768,0,1,1,1.535,0V59.846a.107.107,0,0,0,.105.108h7.721a2.235,2.235,0,0,0,1.487-.592,3.406,3.406,0,0,0,.454-1.022c.064-.192.127-.38.194-.55l1.692-4.266a.754.754,0,0,0-.526-.623c-2.215-.622-3.7.091-4.421,2.118a.761.761,0,0,1-.983.471.8.8,0,0,1-.459-1.011c.994-2.809,3.278-3.939,6.267-3.1a2.343,2.343,0,0,1,1.667,2.274v.155L619.3,58.385c-.057.144-.11.3-.164.466a4.535,4.535,0,0,1-.751,1.551A3.705,3.705,0,0,1,615.744,61.531Z" transform="translate(-606.383 -42.131)" fill="#333"/>
      </g>
      <g id="Group_3" data-name="Group 3" transform="translate(20.699 3.376)">
        <path id="Path_3" data-name="Path 3" d="M624.292,42.9a.768.768,0,0,1-.768-.768V39.98a.767.767,0,0,1,1.535,0v2.148A.767.767,0,0,1,624.292,42.9Z" transform="translate(-623.524 -39.213)" fill="#333"/>
      </g>
    </g>
  </g>
</svg>
